<svg data-name="google-analytics (1)" xmlns="http://www.w3.org/2000/svg" width="22" height="22" viewBox="0 0 22 22">
    <g data-name="Group 8103">
        <path data-name="Path 43260" d="M167.6 160h-6.907a.691.691 0 0 0-.691.691v13.814a.691.691 0 0 0 .691.691h6.907a.691.691 0 0 0 .691-.691v-13.814a.691.691 0 0 0-.691-.691z" transform="translate(-153.093 -153.196)" style="fill:#4d9dff"/>
        <path data-name="Path 43261" d="M7.6 320H.691a.691.691 0 0 0-.691.691v6.909a.691.691 0 0 0 .691.691H7.6a.691.691 0 0 0 .691-.691v-6.907A.691.691 0 0 0 7.6 320z" transform="translate(0 -306.289)" style="fill:#4d9dff"/>
    </g>
    <path data-name="Path 43262" d="M327.6 0h-6.907a.689.689 0 0 0-.693.688v20.625a.689.689 0 0 0 .691.688h6.909a.689.689 0 0 0 .691-.687V.688A.689.689 0 0 0 327.6 0z" transform="translate(-306.289)" style="fill:#724af7"/>
</svg>
