<svg xmlns="http://www.w3.org/2000/svg" width="12" height="12" viewBox="0 0 12 12">
    <g data-name="Group 4915">
        <g data-name="Group 4914">
            <path data-name="Path 4557" d="M223.114.972h2.563l-5.861 5.863a.486.486 0 1 0 .685.688l5.863-5.863v2.563a.486.486 0 1 0 .972 0V.487a.487.487 0 0 0-.485-.487h-3.736a.486.486 0 1 0 0 .972z" transform="translate(-215.338)" style="fill:#2863eb"/>
            <path data-name="Path 4558" d="M2.519 12h6.959A2.521 2.521 0 0 0 12 9.481V7.2a.42.42 0 0 0-.84 0v2.279a1.682 1.682 0 0 1-1.679 1.679H2.519A1.682 1.682 0 0 1 .84 9.479V2.521A1.682 1.682 0 0 1 2.519.842h2.248a.421.421 0 0 0 0-.842H2.519A2.521 2.521 0 0 0 0 2.519v6.96A2.524 2.524 0 0 0 2.519 12z" style="fill:#2863eb"/>
        </g>
    </g>
</svg>
