<svg xmlns="http://www.w3.org/2000/svg" width="21.002" height="21.001" viewBox="0 0 21.002 21.001">
    <g data-name="Group 7823">
        <path data-name="Subtraction 3" d="M22390 4311h-15a3.005 3.005 0 0 1-3-3v-15a3.005 3.005 0 0 1 3-3h15a3 3 0 0 1 3 3v15a3 3 0 0 1-3 3zm-15.5-4a.5.5 0 0 0 0 1h10.8a1.294 1.294 0 0 0 2.395 0h3.8a.5.5 0 0 0 0-1h-3.8a1.3 1.3 0 0 0-2.395 0zm12.74-6.857a2.067 2.067 0 0 0 2.3 1.708c1.211 0 2.023-.612 2.023-1.523-.02-1.124-1-1.359-1.793-1.549-.525-.125-.939-.225-.939-.542 0-.247.2-.388.557-.388a.662.662 0 0 1 .736.567h1.41a1.882 1.882 0 0 0-2.1-1.7c-1.215 0-2.029.623-2.029 1.551 0 1.1.98 1.331 1.77 1.515.51.119.951.222.951.542 0 .242-.236.4-.6.4a.7.7 0 0 1-.77-.579h-1.512zm-11.262.529h2.342l.377 1.107h1.619l-2.275-6.277h-1.771l-2.27 6.277h1.6l.377-1.107zm5.023-5.17v6.277h2.355a3.367 3.367 0 0 0 2.4-.87 3.326 3.326 0 0 0 0-4.539 3.37 3.37 0 0 0-2.4-.869H22381zm2.254 4.957h-.725v-3.659h.725a1.689 1.689 0 0 1 1.838 1.837 1.663 1.663 0 0 1-1.837 1.82zm-5.328-.967h-1.551l.77-2.3.779 2.3z" transform="translate(-22371.996 -4289.999)" style="fill:#fff"/>
        <path data-name="Path 43243" d="M1 0a1 1 0 1 1-1 1 1 1 0 0 1 1-1z" transform="translate(13.504 16.501)" style="fill:#fff"/>
    </g>
</svg>
