<svg xmlns="http://www.w3.org/2000/svg" width="59.994" height="50" viewBox="0 0 59.994 50">
    <path data-name="Path 43535" d="M57 44h-2v-8a2 2 0 0 0-2-2h-2a2 2 0 0 0-2 2v8h-1V30a2 2 0 0 0-2-2h-2a2 2 0 0 0-2 2v14h-1V33a2 2 0 0 0-2-2h-2a2 2 0 0 0-2 2v11a1 1 0 0 1-1-1V27a1 1 0 0 0-2 0v16a3 3 0 0 0 3 3h22a1 1 0 0 0 0-2zm-20 0V33h2v11zm7 0V30h2v14zm7 0v-8h2v8zm-5-30a1 1 0 0 1 1-1h9a1 1 0 0 1 0 2h-9a1 1 0 0 1-1-1zm-3 0a1 1 0 1 1 1 1 1 1 0 0 1-1-1zm3 4a1 1 0 0 1 1-1h9a1 1 0 0 1 0 2h-9a1 1 0 0 1-1-1zm0 4a1 1 0 0 1 1-1h9a1 1 0 0 1 0 2h-9a1 1 0 0 1-1-1zm-3-4a1 1 0 1 1 1 1 1 1 0 0 1-1-1zm0 4a1 1 0 1 1 1 1 1 1 0 0 1-1-1zM59 7H9a3 3 0 0 0-3 3v13.051a3.483 3.483 0 0 0 0 6.9v4.691A12.989 12.989 0 1 0 26.521 50H59a3 3 0 0 0 3-3V10a3 3 0 0 0-3-3zM5 26.5A1.5 1.5 0 1 1 6.5 28 1.5 1.5 0 0 1 5 26.5zm9 6.551V43.4l-9.118 4.91A10.991 10.991 0 0 1 14 33.051zm2 0A11.011 11.011 0 0 1 25.949 43H16zM15 55a11 11 0 0 1-9.164-4.929L15.253 45h10.7A11.011 11.011 0 0 1 15 55zm45-8a1 1 0 0 1-1 1H27.364A12.98 12.98 0 0 0 8 33.063v-3.414a3.5 3.5 0 0 0 2-3.149 3.458 3.458 0 0 0-.357-1.511l5.06-4.5a3.505 3.505 0 0 0 3.14.238l4.407 3.479a3.5 3.5 0 1 0 6.469-.071l5.781-4.773a3.489 3.489 0 1 0-1.248-1.562l-5.8 4.8a3.5 3.5 0 0 0-3.953.048l-4.072-3.215a3.5 3.5 0 1 0-6.063-.417l-5.064 4.5c-.1-.058-.193-.112-.295-.16V10A1 1 0 0 1 9 9h50a1 1 0 0 1 1 1zM17.561 18.561a1.5 1.5 0 1 1 0-2.121 1.5 1.5 0 0 1 0 2.121zm9 8a1.5 1.5 0 1 1 0-2.121 1.5 1.5 0 0 1 0 2.121zM35.44 15.44a1.5 1.5 0 1 1 0 2.121 1.5 1.5 0 0 1-.001-2.122z" style="fill:#598efc" transform="translate(-2.006 -7)"/>
</svg>
