<svg xmlns="http://www.w3.org/2000/svg" width="20" height="20" viewBox="0 0 20 20">
    <path d="M1.227 289.061a.714.714 0 0 0-.7.722v18.561a.714.714 0 0 0 .711.717h18.573a.714.714 0 1 0 0-1.428H1.955v-17.85a.714.714 0 0 0-.728-.722zm18.568 4.639a.714.714 0 0 0-.49.216l-7.329 7.326-3.067-3.373a.714.714 0 0 0-1.007-.047l-4.286 3.927a.715.715 0 1 0 .965 1.054l3.759-3.441 3.084 3.394a.714.714 0 0 0 1.032.027l7.856-7.857a.714.714 0 0 0-.517-1.223z" transform="translate(-.526 -289.061)" style="fill:#99a6c3"/>
</svg>
