<svg xmlns="http://www.w3.org/2000/svg" width="20" height="20" viewBox="0 0 20 20">
    <path d="M17.222 0H2.778A2.78 2.78 0 0 0 0 2.778v14.444A2.78 2.78 0 0 0 2.778 20h14.444A2.78 2.78 0 0 0 20 17.222V2.778A2.78 2.78 0 0 0 17.222 0zM7.361 14.167v-3.889h5.278v3.889zm5.278 1.111v3.611H7.361v-3.611zm0-9.722v3.611H7.361V5.556zm6.25 0v3.611H13.75V5.556zM6.25 9.167H1.111V5.556H6.25zm-5.139 1.111H6.25v3.889H1.111zm12.639 0h5.139v3.889H13.75zM2.778 1.111h14.444a1.668 1.668 0 0 1 1.667 1.667v1.666H1.111V2.778a1.668 1.668 0 0 1 1.667-1.667zM1.111 17.222v-1.944H6.25v3.611H2.778a1.668 1.668 0 0 1-1.667-1.667zm16.111 1.667H13.75v-3.611h5.139v1.945a1.668 1.668 0 0 1-1.667 1.666zm0 0" style="fill:#2863eb"/>
</svg>
