<svg xmlns="http://www.w3.org/2000/svg" width="18" height="18" viewBox="0 0 18 18">
    <path data-name="Path 43265" d="M19.25 5.227a3.976 3.976 0 0 0-3.977-3.977H5.227A3.976 3.976 0 0 0 1.25 5.227v10.046a3.976 3.976 0 0 0 3.977 3.977h10.046a3.976 3.976 0 0 0 3.977-3.977zm-8.591 1.811-2.01 6.028a.628.628 0 0 0 1.192.4l2.009-6.028a.628.628 0 0 0-1.192-.4zm2.161 1.646 1.565 1.566-1.565 1.566a.628.628 0 0 0 .887.887l2.009-2.009a.627.627 0 0 0 0-.887L13.708 7.8a.628.628 0 1 0-.887.887zM6.792 7.8 4.783 9.806a.627.627 0 0 0 0 .887L6.792 12.7a.628.628 0 0 0 .887-.887L6.115 10.25 7.68 8.684a.628.628 0 0 0-.888-.884z" style="fill:#7d9ab0;fill-rule:evenodd" transform="translate(-1.25 -1.25)"/>
</svg>
