<svg xmlns="http://www.w3.org/2000/svg" width="6" height="10" viewBox="0 0 6 10">
    <g data-name="Group 48180">
        <path data-name="Icon awesome-sort-up" d="M5.497 3.996H.51a.589.589 0 0 1-.357-.982l2.5-2.849a.459.459 0 0 1 .711 0l2.5 2.849a.588.588 0 0 1-.367.982z"/>
        <path data-name="Icon awesome-sort-down" d="M1.7 20.25h4.986a.589.589 0 0 1 .356.982l-2.5 2.849a.459.459 0 0 1-.711 0l-2.5-2.849a.589.589 0 0 1 .369-.982z" transform="translate(-1.19 -14.25)" style="fill:#9ca7b2"/>
    </g>
</svg>
