<svg xmlns="http://www.w3.org/2000/svg" width="16" height="18" viewBox="0 0 16 18">
    <path data-name="Icon awesome-calendar-alt" d="M0 16.313A1.7 1.7 0 0 0 1.714 18h12.572A1.7 1.7 0 0 0 16 16.313V6.75H0zm11.429-6.891A.427.427 0 0 1 11.857 9h1.429a.427.427 0 0 1 .429.422v1.406a.427.427 0 0 1-.429.422h-1.429a.427.427 0 0 1-.429-.422zm0 4.5a.427.427 0 0 1 .429-.422h1.429a.427.427 0 0 1 .429.422v1.406a.427.427 0 0 1-.429.422h-1.43a.427.427 0 0 1-.429-.422zm-4.571-4.5A.427.427 0 0 1 7.286 9h1.428a.427.427 0 0 1 .429.422v1.406a.427.427 0 0 1-.429.422H7.286a.427.427 0 0 1-.429-.422zm0 4.5a.427.427 0 0 1 .429-.422h1.427a.427.427 0 0 1 .429.422v1.406a.427.427 0 0 1-.429.422H7.286a.427.427 0 0 1-.429-.422zm-4.571-4.5A.427.427 0 0 1 2.714 9h1.429a.427.427 0 0 1 .429.422v1.406a.427.427 0 0 1-.429.422H2.714a.427.427 0 0 1-.429-.422zm0 4.5a.427.427 0 0 1 .429-.422h1.427a.427.427 0 0 1 .429.422v1.406a.427.427 0 0 1-.429.422H2.714a.427.427 0 0 1-.429-.422zm12-11.672h-1.716V.563A.569.569 0 0 0 12 0h-1.143a.569.569 0 0 0-.571.563V2.25H5.714V.563A.569.569 0 0 0 5.143 0H4a.569.569 0 0 0-.571.563V2.25H1.714A1.7 1.7 0 0 0 0 3.938v1.687h16V3.938a1.7 1.7 0 0 0-1.714-1.688z" style="fill:#99a0c1"/>
</svg>
