<svg xmlns="http://www.w3.org/2000/svg" width="16" height="15" viewBox="0 0 16 15">
    <path d="M15.2 2.25H3.3a2.012 2.012 0 0 0-1.448.619 2.151 2.151 0 0 0-.6 1.5v10.766a2.151 2.151 0 0 0 .6 1.5 2.012 2.012 0 0 0 1.448.615h11.9a2.012 2.012 0 0 0 1.448-.619 2.151 2.151 0 0 0 .6-1.5V4.365a2.151 2.151 0 0 0-.6-1.5A2.012 2.012 0 0 0 15.2 2.25zm-8.971 9.231a1.628 1.628 0 0 0 1.183-.508.545.545 0 0 1 .775.014.591.591 0 0 1 .014.8 2.727 2.727 0 0 1-3.947 0 2.954 2.954 0 0 1 0-4.08 2.727 2.727 0 0 1 3.947 0 .591.591 0 0 1-.014.8.545.545 0 0 1-.775.014 1.628 1.628 0 0 0-1.183-.508 1.732 1.732 0 0 0 0 3.462zm6.7 0a1.628 1.628 0 0 0 1.183-.508.547.547 0 0 1 .546-.166.568.568 0 0 1 .4.416.59.59 0 0 1-.16.565 2.727 2.727 0 0 1-3.947 0 2.954 2.954 0 0 1 0-4.08 2.727 2.727 0 0 1 3.947 0 .59.59 0 0 1 .16.565.568.568 0 0 1-.4.416.547.547 0 0 1-.546-.166 1.628 1.628 0 0 0-1.183-.508 1.732 1.732 0 0 0 0 3.462z" transform="translate(-1.25 -2.25)" style="fill:#2863eb"/>
</svg>
