<svg xmlns="http://www.w3.org/2000/svg" width="31.309" height="35" viewBox="0 0 31.309 35">
    <g data-name="Group 47426">
        <g data-name="Group 47425">
            <path data-name="Path 43579" d="M52.566 0H29.051A2.053 2.053 0 0 0 27 2.051v30.9A2.053 2.053 0 0 0 29.051 35H44.5a.684.684 0 0 0 0-1.367H29.051a.684.684 0 0 1-.684-.684V2.051a.684.684 0 0 1 .684-.684h23.515a.684.684 0 0 1 .684.684v13.634a.684.684 0 1 0 1.367 0V2.051A2.053 2.053 0 0 0 52.566 0z" transform="translate(-27)" style="fill:#8994a6"/>
        </g>
    </g>
    <g data-name="Group 47428">
        <g data-name="Group 47427">
            <path data-name="Path 43580" d="M412.167 254.2a.683.683 0 1 0 .2.483.688.688 0 0 0-.2-.483z" transform="translate(-384.75 -236.637)" style="fill:#8994a6"/>
        </g>
    </g>
    <g data-name="Group 47430">
        <g data-name="Group 47429">
            <path data-name="Path 43581" d="M80.167 54.2a.683.683 0 1 0 .2.483.688.688 0 0 0-.2-.483z" transform="translate(-75.445 -50.309)" style="fill:#8994a6"/>
        </g>
    </g>
    <g data-name="Group 47432">
        <g data-name="Group 47431">
            <path data-name="Path 43582" d="M98.824 58.977a.684.684 0 0 0-.684.684v8.066h-2.46v-8.242l3.672-3.672a.684.684 0 1 0-.967-.967l-7.214 7.214L87 57.885a.684.684 0 0 0-.967 0l-5.662 5.662v-5.506a.684.684 0 1 0-1.367 0V68.41a.684.684 0 0 0 .684.684h19.136a.684.684 0 0 0 .684-.684v-8.75a.684.684 0 0 0-.684-.683zm-16 8.75h-2.457v-2.246l2.461-2.461zm3.828 0H84.2v-6.074l2.317-2.317.144.144zm3.828 0h-2.457v-6.88l2.461 2.461zm3.828 0h-2.456v-4.414l2.461-2.461z" transform="translate(-75.445 -50.91)" style="fill:#8994a6"/>
        </g>
    </g>
    <g data-name="Group 47434">
        <g data-name="Group 47433">
            <path data-name="Path 43583" d="M85.9 294h-6.216a.684.684 0 0 0 0 1.367H85.9a.684.684 0 0 0 0-1.367z" transform="translate(-75.445 -273.902)" style="fill:#8994a6"/>
        </g>
    </g>
    <g data-name="Group 47436">
        <g data-name="Group 47435">
            <path data-name="Path 43584" d="M85.9 342h-6.216a.684.684 0 0 0 0 1.367H85.9a.684.684 0 0 0 0-1.367z" transform="translate(-75.445 -318.621)" style="fill:#8994a6"/>
        </g>
    </g>
    <g data-name="Group 47438">
        <g data-name="Group 47437">
            <path data-name="Path 43585" d="M85.9 390h-6.216a.684.684 0 0 0 0 1.367H85.9a.684.684 0 0 0 0-1.367z" transform="translate(-75.445 -363.34)" style="fill:#8994a6"/>
        </g>
    </g>
    <g data-name="Group 47440">
        <g data-name="Group 47439">
            <path data-name="Path 43586" d="M85.9 438h-6.216a.684.684 0 0 0 0 1.367H85.9a.684.684 0 0 0 0-1.367z" transform="translate(-75.445 -408.059)" style="fill:#8994a6"/>
        </g>
    </g>
    <g data-name="Group 47442">
        <g data-name="Group 47441">
            <path data-name="Path 43587" d="M273.44 293.193a7.213 7.213 0 0 0-4.615 1.664l-.01-.01v-1.469a.684.684 0 0 0-1.367 0v.1l-.586-.586a.684.684 0 0 0-.967.967l.586.586h-.1a.684.684 0 0 0 0 1.367h1.469l.01.01a7.243 7.243 0 1 0 5.582-2.631zm0 13.125a5.874 5.874 0 0 1-4.609-9.521l.974.974a4.518 4.518 0 1 0 .967-.967l-.974-.974a5.877 5.877 0 1 1 3.643 10.488zm0-3.828a2.051 2.051 0 1 0-.884-3.9l-.8-.8a3.149 3.149 0 1 1-.967.967l.8.8a2.05 2.05 0 0 0 1.85 2.934zm.042-2.732a.683.683 0 1 1-.724.724h.042a.682.682 0 0 0 .682-.726z" transform="translate(-249.377 -272.686)" style="fill:#8994a6"/>
        </g>
    </g>
</svg>
