<svg xmlns="http://www.w3.org/2000/svg" width="39.857" height="33.13" viewBox="0 0 39.857 33.13">
    <g data-name="Group 48196">
        <path d="M32.456 46.581v-2.118h-11.9v.937a.623.623 0 1 1-1.246 0v-.934H6.816v2.117a.623.623 0 0 1-1.246 0v-2.74a.623.623 0 0 1 .623-.623h13.113v-.933a.623.623 0 1 1 1.246 0v.933h12.527a.623.623 0 0 1 .623.623v2.74a.623.623 0 0 1-1.246 0zM3.968 58.656a.623.623 0 0 1-.5-1l1.052-1.385v-.353H.623A.623.623 0 0 1 0 55.3v-6.753a.623.623 0 0 1 .623-.623h11.14a.623.623 0 0 1 .623.623V55.3a.623.623 0 0 1-.623.623h-3.9v.353l1.049 1.386a.623.623 0 0 1-.5 1zm-2.722-3.983h9.894v-5.5H1.246zm4.52 1.246v.562a.623.623 0 0 1-.126.376l-.419.554h1.944l-.419-.554a.623.623 0 0 1-.126-.376v-.562zm34.016 1.425a.924.924 0 0 1-.08.88.975.975 0 0 1-.8.433H27.384a.975.975 0 0 1-.8-.433.924.924 0 0 1-.08-.88l1.181-2.86a.906.906 0 0 1 .036-.077v-5.533a.951.951 0 0 1 .95-.95h8.941a.951.951 0 0 1 .95.95v5.531c.013.025.025.051.036.077zM28.969 49.17v4.73h8.35v-4.73zm9.493 8.24-.937-2.269h-8.762l-.937 2.269zM22.091 46.569a1.208 1.208 0 0 1 1.209 1.206v9.675a1.208 1.208 0 0 1-1.206 1.206h-4.91a1.208 1.208 0 0 1-1.206-1.206v-9.675a1.208 1.208 0 0 1 1.206-1.206zm-.039 1.246H17.22v9.6h4.831zm-3.505 8.2a1.09 1.09 0 1 1 1.09 1.09 1.091 1.091 0 0 1-1.091-1.088zm.933 0a.156.156 0 1 0 .156-.156.154.154 0 0 0-.156.158z" transform="translate(0 -25.526)" style="fill:#8994a7"/>
        <g data-name="Group 48196">
            <path data-name="Path 43668" d="M81.907 34.7H62.971a1.113 1.113 0 0 0-1.087 1.138v12.92a1.113 1.113 0 0 0 1.087 1.142h18.936a1.113 1.113 0 0 0 1.087-1.138V35.835a1.114 1.114 0 0 0-1.087-1.135m0 2.954v9.431h-.05v1.134h.05v.547h-18.94v-.543h.054v-1.141h-.053v-9.431h.05v-1.134h-.05v-.686h18.939v.683h-.054v1.134z" transform="translate(-52.596 -34.697)" style="fill:#8994a7"/>
            <path data-name="Rectangle 1715" transform="translate(11.56 1.78)" style="fill:#8994a7" d="M0 0h1.163v1.108H0z"/>
            <path data-name="Rectangle 1716" transform="translate(13.721 1.78)" style="fill:#8994a7" d="M0 0h1.163v1.108H0z"/>
            <path data-name="Rectangle 1717" transform="translate(15.937 1.78)" style="fill:#8994a7" d="M0 0h1.163v1.108H0z"/>
            <path data-name="Rectangle 1718" transform="translate(18.153 1.78)" style="fill:#8994a7" d="M0 0h1.163v1.108H0z"/>
            <path data-name="Rectangle 1719" transform="translate(20.37 1.78)" style="fill:#8994a7" d="M0 0h1.163v1.108H0z"/>
            <path data-name="Rectangle 1720" transform="translate(22.586 1.78)" style="fill:#8994a7" d="M0 0h1.163v1.108H0z"/>
            <path data-name="Rectangle 1721" transform="translate(24.802 1.78)" style="fill:#8994a7" d="M0 0h1.163v1.108H0z"/>
            <path data-name="Rectangle 1722" transform="translate(26.964 1.78)" style="fill:#8994a7" d="M0 0h1.163v1.108H0z"/>
            <path data-name="Rectangle 1723" transform="translate(11.56 12.448)" style="fill:#8994a7" d="M0 0h1.163v1.108H0z"/>
            <path data-name="Rectangle 1724" transform="translate(13.721 12.448)" style="fill:#8994a7" d="M0 0h1.163v1.108H0z"/>
            <path data-name="Rectangle 1725" transform="translate(15.937 12.448)" style="fill:#8994a7" d="M0 0h1.163v1.108H0z"/>
            <path data-name="Rectangle 1726" transform="translate(18.153 12.448)" style="fill:#8994a7" d="M0 0h1.163v1.108H0z"/>
            <path data-name="Rectangle 1727" transform="translate(20.37 12.448)" style="fill:#8994a7" d="M0 0h1.163v1.108H0z"/>
            <path data-name="Rectangle 1728" transform="translate(22.586 12.448)" style="fill:#8994a7" d="M0 0h1.163v1.108H0z"/>
            <path data-name="Rectangle 1729" transform="translate(24.802 12.448)" style="fill:#8994a7" d="M0 0h1.163v1.108H0z"/>
            <path data-name="Rectangle 1730" transform="translate(26.964 12.448)" style="fill:#8994a7" d="M0 0h1.163v1.108H0z"/>
            <text transform="translate(15.22 10)" style="font-size:7px;font-family:Inter-Bold,Inter;font-weight:700;fill:#8994a7"><tspan x="0" y="0">AD</tspan></text>
        </g>
    </g>
</svg>
