<svg xmlns="http://www.w3.org/2000/svg" width="6" height="10" viewBox="0 0 6 10">
    <g data-name="Group 48183">
        <path data-name="Icon awesome-sort-up" d="M6.687 8H1.7a.589.589 0 0 1-.357-.982l2.5-2.849a.459.459 0 0 1 .711 0l2.5 2.849A.588.588 0 0 1 6.687 8z" transform="translate(-1.19 -4.004)" style="fill:#9ca7b2"/>
        <path data-name="Icon awesome-sort-down" d="M.51 6h4.986a.589.589 0 0 1 .356.982l-2.5 2.849a.459.459 0 0 1-.711 0l-2.5-2.849A.589.589 0 0 1 .51 6z"/>
    </g>
</svg>
