<svg xmlns="http://www.w3.org/2000/svg" width="16" height="16" viewBox="0 0 16 16">
    <path data-name="Path 53332" d="M34.88 34.342h10.325v-.86a.86.86 0 0 0-.86-.86H33.231a1.219 1.219 0 0 0-1.219 1.219v11.113a.86.86 0 0 0 .86.86h.86V35.489a1.147 1.147 0 0 1 1.147-1.147z" style="fill:#2863eb" transform="translate(-32.012 -32.621)"/>
    <path data-name="Path 53333" d="M124.345 112.621h-11.473a.86.86 0 0 0-.86.86v11.473a.86.86 0 0 0 .86.86h11.473a.86.86 0 0 0 .86-.86v-11.473a.861.861 0 0 0-.86-.86zm-2.295 7.171h-2.868v2.868h-1.147v-2.868h-2.868v-1.147h2.868v-2.868h1.147v2.868h2.868z" transform="translate(-109.206 -109.815)" style="fill:#2863eb"/>
</svg>
