<svg xmlns="http://www.w3.org/2000/svg" width="12" height="12" viewBox="0 0 12 12">
    <g data-name="Group 4915">
        <g data-name="Group 4914">
            <path data-name="Path 4557" d="M222.772.875h2.308l-5.28 5.28a.437.437 0 1 0 .617.62l5.28-5.28V3.8a.437.437 0 1 0 .875 0V.439a.439.439 0 0 0-.435-.439h-3.365a.437.437 0 1 0 0 .875z" transform="translate(-214.576)" style="fill:#2863eb"/>
            <path data-name="Path 4558" d="M2.519 12h6.96A2.521 2.521 0 0 0 12 9.481V6.2a.42.42 0 0 0-.84 0v3.279a1.682 1.682 0 0 1-1.679 1.679H2.519A1.682 1.682 0 0 1 .84 9.479V2.521A1.682 1.682 0 0 1 2.519.842h3.248a.421.421 0 0 0 0-.842H2.519A2.521 2.521 0 0 0 0 2.519v6.96A2.524 2.524 0 0 0 2.519 12z" style="fill:#2863eb"/>
        </g>
    </g>
</svg>
