<svg xmlns="http://www.w3.org/2000/svg" width="33.29" height="24" viewBox="0 0 33.29 24">
    <path data-name="Union 2" d="M9.291 12a12 12 0 1 1 12 12 12 12 0 0 1-12-12zm2.322 0a9.678 9.678 0 1 0 9.677-9.677A9.677 9.677 0 0 0 11.613 12zM5.807 22.451a1.161 1.161 0 1 1 0-2.322h4.645a1.161 1.161 0 1 1 0 2.322zm-3.1-4.645a1.161 1.161 0 1 1 0-2.323h4.648a1.161 1.161 0 0 1 0 2.323zm21.677-1.548a1.147 1.147 0 0 1-.821-.341l-3.1-3.1a1.161 1.161 0 0 1-.34-.821V5.807a1.161 1.161 0 1 1 2.322 0v5.713l2.757 2.756a1.162 1.162 0 0 1 0 1.642 1.149 1.149 0 0 1-.817.341zm-23.226-3.1a1.161 1.161 0 0 1 0-2.323h6.197a1.161 1.161 0 0 1 0 2.323zM2.71 8.516a1.161 1.161 0 1 1 0-2.322h4.645a1.161 1.161 0 0 1 0 2.322zm3.1-4.645a1.161 1.161 0 1 1 0-2.323h4.645a1.161 1.161 0 0 1 0 2.323z" style="fill:#14c171"/>
</svg>
