<svg xmlns="http://www.w3.org/2000/svg" width="15.942" height="16.005" viewBox="0 0 15.942 16.005">
    <path data-name="Path 4605" d="M2.876 0H1.469A.469.469 0 0 0 1 .469v1.407h1.876z" style="fill:#2863eb" transform="translate(-1)"/>
    <path data-name="Path 4606" d="M91 0h1.876v1.876H91z" transform="translate(-88.187)" style="fill:#2863eb"/>
    <path data-name="Path 4607" d="M182.876.469a.469.469 0 0 0-.469-.469H181v1.876h1.876z" transform="translate(-175.373)" style="fill:#2863eb"/>
    <path data-name="Path 4608" d="M1 453.407a.469.469 0 0 0 .469.469h1.407V452H1z" transform="translate(-1 -437.871)" style="fill:#2863eb"/>
    <path data-name="Path 4609" d="M91 452h1.876v1.876H91z" transform="translate(-88.187 -437.871)" style="fill:#2863eb"/>
    <path data-name="Path 4610" d="M181 453.876h1.407a.469.469 0 0 0 .469-.469V452H181z" transform="translate(-175.373 -437.871)" style="fill:#2863eb"/>
    <path data-name="Path 4611" d="m135.562 50.489-.02-.013-2.013-1.168 2.013-1.168.02-.013a2.345 2.345 0 1 0-2.947-.458l-.956.554-2.451-1.423v2.168l.582.338-4.924 2.856a.469.469 0 0 0 .115.859 3.647 3.647 0 0 0 2.785-.372l3.894-2.258.956.554a2.344 2.344 0 1 0 2.947-.458zm-1.2-5.783a1.407 1.407 0 1 1-1.407 1.407 1.408 1.408 0 0 1 1.411-1.407zm0 9.2a1.407 1.407 0 1 1 1.407-1.407 1.408 1.408 0 0 1-1.403 1.412z" transform="translate(-120.768 -42.4)" style="fill:#2863eb"/>
    <path data-name="Path 4612" d="M6.15 98.872a4.635 4.635 0 0 1-1.19-.156 1.407 1.407 0 0 1-.344-2.576L8.5 93.885V90H1v10.378h7.5v-2.156l-.046.027a4.6 4.6 0 0 1-2.304.623z" transform="translate(-1 -87.187)" style="fill:#2863eb"/>
</svg>
