<svg xmlns="http://www.w3.org/2000/svg" width="17.866" height="14.558" viewBox="0 0 17.866 14.558">
    <g data-name="Layer 25">
        <path data-name="Path 43263" d="M18.381 7.647h-6.924l-1.171-1.761A1.985 1.985 0 0 0 8.633 5H4.485A1.985 1.985 0 0 0 2.5 6.985v10.588a1.985 1.985 0 0 0 1.985 1.985h13.9a1.985 1.985 0 0 0 1.985-1.985V9.632a1.985 1.985 0 0 0-1.985-1.985zM4.485 6.323h4.148a.662.662 0 0 1 .551.3l.684 1.028H3.823v-.666a.662.662 0 0 1 .662-.662zm14.558 11.25a.662.662 0 0 1-.662.662H4.485a.662.662 0 0 1-.662-.662V8.97h14.558a.662.662 0 0 1 .662.662z" style="fill:#1e2b37" transform="translate(-2.5 -5)"/>
    </g>
</svg>
