<svg xmlns="http://www.w3.org/2000/svg" width="22" height="17.188" viewBox="0 0 22 17.188">
    <path data-name="Path 53226" d="M35.637 10H23.744a.344.344 0 0 0-.268.559l1.513 1.891a1.709 1.709 0 0 0 1.341.645h10.682a.344.344 0 0 0 .344-.344v-1.032A1.721 1.721 0 0 0 35.637 10z" transform="translate(-15.356 -8.969)" style="fill:#ffb125"/>
    <path data-name="Path 53227" d="M22 10.437H10.972a1.029 1.029 0 0 1-.8-.386L8.449 7.9A2.4 2.4 0 0 0 6.572 7H1.719A1.719 1.719 0 0 0 0 8.719v13.75a1.719 1.719 0 0 0 1.719 1.719h18.562A1.719 1.719 0 0 0 22 22.469z" transform="translate(0 -7)" style="fill:#fcd354"/>
</svg>
