<svg xmlns="http://www.w3.org/2000/svg" width="28" height="28" viewBox="0 0 28 28">
    <path data-name="Union 3" d="M22.465 28a2.93 2.93 0 0 1-2.93-2.93v-2.6a2.931 2.931 0 0 1 2.93-2.93h2.6A2.93 2.93 0 0 1 28 22.465v2.6A2.928 2.928 0 0 1 25.069 28zm-.69-6.225a.973.973 0 0 0-.286.69v2.6a.979.979 0 0 0 .976.977h2.6a.98.98 0 0 0 .977-.977v-2.6a.979.979 0 0 0-.977-.976h-2.6a.973.973 0 0 0-.69.286zm-8.465 5.287a.976.976 0 0 1 0-1.381l.936-.937H3.581A3.58 3.58 0 0 1 0 21.163V16.6a3.58 3.58 0 0 1 3.581-3.582h6.187V12.7a2.928 2.928 0 0 1 2.93-2.93h2.6a2.928 2.928 0 0 1 2.93 2.93v2.6a2.928 2.928 0 0 1-2.93 2.93H12.7a2.928 2.928 0 0 1-2.93-2.93v-.326H3.581A1.626 1.626 0 0 0 1.954 16.6v4.558a1.627 1.627 0 0 0 1.627 1.628h10.666l-.937-.938a.976.976 0 0 1 1.38-1.381l2.605 2.6a.976.976 0 0 1 0 1.381l-2.605 2.6a.975.975 0 0 1-1.38 0zM11.721 15.3a.979.979 0 0 0 .977.976h2.6a.977.977 0 0 0 .976-.976v-2.6a.979.979 0 0 0-.976-.977H12.7a.98.98 0 0 0-.977.977v2.6zm10.705 2-2.572-2.573a.976.976 0 0 1-.006-1.439l2.578-2.578a.976.976 0 0 1 1.381 1.38l-.937.938h1.549a1.627 1.627 0 0 0 1.628-1.628V6.837a1.629 1.629 0 0 0-1.628-1.628H8.465v.326a2.931 2.931 0 0 1-2.93 2.93H2.93A2.931 2.931 0 0 1 0 5.535V2.93A2.931 2.931 0 0 1 2.93 0h2.6a2.931 2.931 0 0 1 2.93 2.93v.326h15.959A3.578 3.578 0 0 1 28 6.837V11.4a3.58 3.58 0 0 1-3.581 3.581h-1.55l.937.938a.976.976 0 1 1-1.38 1.381zM2.24 2.24a.972.972 0 0 0-.286.69v2.6a.977.977 0 0 0 .977.977h2.6a.977.977 0 0 0 .977-.977v-2.6a.977.977 0 0 0-.977-.977H2.93a.972.972 0 0 0-.69.287z" style="fill:#c901da"/>
</svg>
