<svg xmlns="http://www.w3.org/2000/svg" width="14" height="16" viewBox="0 0 14 16">
    <path data-name="Path 4613" d="M44.618 5.723h-.38V3.869a.275.275 0 0 0 0-.035.31.31 0 0 0-.074-.2L41.114.107a.306.306 0 0 0-.062-.052L41.029.04a.323.323 0 0 0-.061-.026l-.017-.005A.31.31 0 0 0 40.88 0h-7.49a.624.624 0 0 0-.62.627v5.1h-.38a.891.891 0 0 0-.886.9v4.664a.892.892 0 0 0 .886.9h.38v3.192a.624.624 0 0 0 .62.627h10.228a.625.625 0 0 0 .62-.627V12.18h.38a.892.892 0 0 0 .886-.9V6.62a.892.892 0 0 0-.886-.897zm-1 9.48H33.39V12.18h10.228v3.02zm-7.455-4.658a1.388 1.388 0 0 0 .515-.069V9.5h-.714v-.832h1.724v2.468a5.127 5.127 0 0 1-1.545.264 2.561 2.561 0 0 1-1.882-.633 2.281 2.281 0 0 1-.652-1.7 2.4 2.4 0 0 1 2.644-2.447 3.155 3.155 0 0 1 1.284.229l-.22.848a2.54 2.54 0 0 0-1.079-.2 1.409 1.409 0 0 0-1.531 1.515 1.4 1.4 0 0 0 1.456 1.533zm2.342.806V6.667h1.051v4.685zm4.67-2.745v.862h-1.661v1.884h-1.051V6.667h2.83v.869h-1.779v1.07h1.662zm.443-2.883H33.39V.628h7.18v3.21a.312.312 0 0 0 .31.314h2.738v1.571z" transform="translate(-31.504)" style="fill:#2863eb"/>
</svg>
