<svg data-name="Group 1817" xmlns="http://www.w3.org/2000/svg" width="7.237" height="11.58" viewBox="0 0 7.237 11.58">
    <path data-name="Icon awesome-chevron-down" d="M3.735 12.911.514 9.726a.39.39 0 0 1 0-.556L.89 8.8a.4.4 0 0 1 .562 0l2.565 2.524L6.581 8.8a.4.4 0 0 1 .562 0l.376.371a.39.39 0 0 1 0 .556L4.3 12.911a.4.4 0 0 1-.565 0z" transform="translate(-.398 -1.446)" style="fill:#637381"/>
    <path data-name="Icon awesome-chevron-down" d="M3.735 8.8.514 11.983a.39.39 0 0 0 0 .556l.376.371a.4.4 0 0 0 .562 0l2.565-2.524 2.565 2.524a.4.4 0 0 0 .562 0l.376-.371a.39.39 0 0 0 0-.556L4.3 8.8a.4.4 0 0 0-.565 0z" transform="translate(-.398 -8.683)" style="fill:#637381"/>
</svg>
