<svg xmlns="http://www.w3.org/2000/svg" width="24" height="28" viewBox="0 0 24 28">
    <path data-name="Union 1" d="M11.6 27.961a2.055 2.055 0 0 1-.274-.074C-.284 23.864-.1 14.092.027 7.625v-.05C.042 7.28.05 6.99.054 6.7a2.977 2.977 0 0 1 2.813-2.9 11.631 11.631 0 0 0 7.89-3.3 1.815 1.815 0 0 1 2.47-.017A11.648 11.648 0 0 0 21.134 3.8a2.976 2.976 0 0 1 2.813 2.9c0 .286.012.575.025.87.124 6.5.311 16.278-11.3 20.312a2.061 2.061 0 0 1-.274.074 2.047 2.047 0 0 1-.793 0zm.288-26.274a13.356 13.356 0 0 1-8.933 3.75 1.323 1.323 0 0 0-1.247 1.292c0 .3-.013.608-.027.92-.129 6.712-.289 15.051 10.194 18.687a.4.4 0 0 0 .052.014.374.374 0 0 0 .146 0 .4.4 0 0 0 .053-.014c10.481-3.641 10.322-12 10.194-18.708-.014-.29-.022-.6-.026-.9a1.323 1.323 0 0 0-1.251-1.291A13.374 13.374 0 0 1 12.09 1.67a.153.153 0 0 0-.09-.027.158.158 0 0 0-.108.044zM4.976 14A7.024 7.024 0 1 1 12 20.979 7.009 7.009 0 0 1 4.976 14zm1.654 0A5.37 5.37 0 1 0 12 8.665 5.359 5.359 0 0 0 6.63 14zm3.542 2.817L8.7 15.357a.818.818 0 0 1 0-1.162.831.831 0 0 1 1.17 0l.886.88 3.263-3.241a.831.831 0 0 1 1.17 0 .818.818 0 0 1 0 1.162l-3.847 3.822a.831.831 0 0 1-1.17 0z" style="fill:#ff1e45"/>
</svg>
