<svg xmlns="http://www.w3.org/2000/svg" width="19" height="19" viewBox="0 0 19 19">
    <path data-name="Icon awesome-file-alt" d="M10.5 4.781V0H1.125C.5 0 0 .376 0 .844v16.312c0 .468.5.844 1.125.844h15.75C17.5 18 18 17.624 18 17.156V5.625h-6.375c-.619 0-1.125-.38-1.125-.844zm3 8.3c0 .232-.253.422-.562.422H5.063c-.309 0-.562-.19-.562-.422V12.8c0-.232.253-.422.563-.422h7.875c.309 0 .563.19.563.422zm0-2.25c0 .232-.253.422-.562.422H5.063c-.309 0-.562-.19-.562-.422v-.281c0-.232.253-.422.563-.422h7.875c.309 0 .563.19.563.422zm0-2.531v.281c0 .232-.253.422-.562.422H5.063C4.753 9 4.5 8.81 4.5 8.578V8.3c0-.232.253-.422.563-.422h7.875c.309-.003.562.187.562.422zM18 4.286V4.5h-6V0h.286a1.338 1.338 0 0 1 .8.246l4.589 3.445a.752.752 0 0 1 .325.595z" transform="translate(.5 .5)" style="fill:#fff;stroke:transparent;stroke-miterlimit:10"/>
</svg>
