<svg data-name="google-analytics (1)" xmlns="http://www.w3.org/2000/svg" width="18" height="18" viewBox="0 0 18 18">
    <g data-name="Group 8103">
        <path data-name="Path 43260" d="M166.216 160h-5.651a.565.565 0 0 0-.565.565v11.3a.565.565 0 0 0 .565.565h5.651a.565.565 0 0 0 .565-.565v-11.3a.565.565 0 0 0-.565-.565z" transform="translate(-154.349 -154.433)" style="fill:#4d9dff"/>
        <path data-name="Path 43261" d="M6.216 320H.565a.565.565 0 0 0-.565.565v5.651a.565.565 0 0 0 .565.565h5.651a.565.565 0 0 0 .565-.565v-5.651a.565.565 0 0 0-.565-.565z" transform="translate(0 -308.782)" style="fill:#4d9dff"/>
    </g>
    <path data-name="Path 43262" d="M326.216 0h-5.651a.564.564 0 0 0-.565.563v16.875a.564.564 0 0 0 .565.563h5.651a.564.564 0 0 0 .565-.562V.563a.564.564 0 0 0-.565-.563z" transform="translate(-308.782)" style="fill:#724af7"/>
</svg>
