<svg xmlns="http://www.w3.org/2000/svg" width="22" height="16" viewBox="0 0 22 16">
    <path data-name="Icon awesome-cc-visa" d="M17.955 9.368s.29 1.329.355 1.607h-1.275l.611-1.554s.126-.325.2-.532l.107.479zM22 3.964v12.572a1.777 1.777 0 0 1-1.833 1.714H1.833A1.777 1.777 0 0 1 0 16.536V3.964A1.777 1.777 0 0 1 1.833 2.25h18.334A1.777 1.777 0 0 1 22 3.964zM5.825 12.936l2.414-5.543H6.615l-1.5 3.786-.164-.768-.535-2.55c-.088-.354-.359-.454-.7-.468H1.249l-.027.107a6.306 6.306 0 0 1 1.612.611L4.2 12.936zm3.606.007.962-5.55H8.857l-.957 5.55h1.53zm5.343-1.814c.008-.632-.4-1.114-1.287-1.511-.539-.254-.867-.425-.867-.686.008-.236.279-.479.882-.479a2.789 2.789 0 0 1 1.142.211l.137.061.21-1.2a4.048 4.048 0 0 0-1.375-.236c-1.516 0-2.582.757-2.59 1.836-.011.8.764 1.239 1.344 1.507s.794.45.794.689c-.008.371-.481.543-.92.543a3.237 3.237 0 0 1-1.44-.3l-.2-.089-.214 1.246a4.973 4.973 0 0 0 1.711.3c1.611.004 2.661-.742 2.673-1.892zm5.393 1.814-1.237-5.55h-1.189a.762.762 0 0 0-.8.461l-2.28 5.089h1.612l.321-.832h1.971c.046.2.183.832.183.832z" transform="translate(0 -2.25)" style="fill:#191b73"/>
</svg>
