<svg xmlns="http://www.w3.org/2000/svg" width="18" height="18.001" viewBox="0 0 18 18.001">
    <path data-name="Icon awesome-tools" d="M17.614 13.911 13.5 9.794a2.61 2.61 0 0 0-3-.489L6.748 5.558V3.375L2.248 0 0 2.25l3.375 4.5h2.181L9.3 10.5a2.616 2.616 0 0 0 .489 3l4.117 4.117a1.307 1.307 0 0 0 1.853 0l1.853-1.853a1.313 1.313 0 0 0 0-1.853zm-5.955-6A3.7 3.7 0 0 1 14.292 9l.682.682a4.976 4.976 0 0 0 1.54-1.037 5.056 5.056 0 0 0 1.332-4.806.421.421 0 0 0-.707-.193l-2.615 2.615-2.387-.4-.4-2.387L14.355.861a.424.424 0 0 0-.2-.71 5.064 5.064 0 0 0-4.8 1.332A4.982 4.982 0 0 0 7.9 5.125l2.886 2.886a3.83 3.83 0 0 1 .868-.1zm-3.653 2.881L6.013 8.8.656 14.16a2.25 2.25 0 0 0 3.181 3.181L8.182 13a3.775 3.775 0 0 1-.176-2.2zm-5.758 5.8a.844.844 0 1 1 .844-.844.846.846 0 0 1-.844.845z" transform="translate(.004)" style="fill:#8798ac"/>
</svg>
