<svg xmlns="http://www.w3.org/2000/svg" width="13.222" height="17" viewBox="0 0 13.222 17">
    <path data-name="Icon awesome-file-alt" d="M7.713 4.516V0H.826A.81.81 0 0 0 0 .8v15.4a.81.81 0 0 0 .826.8H12.4a.81.81 0 0 0 .826-.8V5.313H8.539a.814.814 0 0 1-.826-.797zm2.2 7.836a.407.407 0 0 1-.413.4H3.719a.407.407 0 0 1-.413-.4v-.266a.407.407 0 0 1 .413-.4H9.5a.407.407 0 0 1 .413.4zm0-2.125a.407.407 0 0 1-.413.4H3.719a.407.407 0 0 1-.413-.4v-.266a.407.407 0 0 1 .413-.4H9.5a.407.407 0 0 1 .413.4zm0-2.391V8.1a.407.407 0 0 1-.413.4H3.719a.407.407 0 0 1-.413-.4v-.264a.407.407 0 0 1 .413-.4H9.5a.407.407 0 0 1 .417.4zm3.306-3.788v.2H8.815V0h.21a.842.842 0 0 1 .585.232l3.371 3.254a.78.78 0 0 1 .241.561z" style="fill:#7e7e7e"/>
</svg>
