<svg data-name="Icon ionic-ios-copy" xmlns="http://www.w3.org/2000/svg" width="16" height="20" viewBox="0 0 16 20">
    <path data-name="Path 320" d="M24.214 5.312h3.8a.254.254 0 0 0 .254-.254 1.18 1.18 0 0 0-.423-.9L24.59 1.445a1.581 1.581 0 0 0-.871-.313.312.312 0 0 0-.313.313v3.064a.809.809 0 0 0 .808.803z" transform="translate(-12.272 -1.128)" style="fill:#4a96a1"/>
    <path data-name="Path 321" d="M17.014 4.506V1.125h-5.537a1.356 1.356 0 0 0-1.352 1.352v14.2a1.356 1.356 0 0 0 1.352 1.352h10.144a1.356 1.356 0 0 0 1.352-1.352V6.408h-4.057a1.9 1.9 0 0 1-1.902-1.902z" transform="translate(-6.973 -1.125)" style="fill:#4a96a1"/>
    <path data-name="Path 322" d="M6.7 19.428V5.625h-.848A1.345 1.345 0 0 0 4.5 6.955V21.59a1.345 1.345 0 0 0 1.352 1.33h10.82a1.345 1.345 0 0 0 1.352-1.33v-.831H8.05a1.345 1.345 0 0 1-1.35-1.331z" transform="translate(-4.5 -2.92)" style="fill:#4a96a1"/>
</svg>
