<svg xmlns="http://www.w3.org/2000/svg" width="17.845" height="18" viewBox="0 0 17.845 18">
    <circle data-name="Ellipse 59" cx="3.913" cy="3.913" r="3.913" transform="translate(3.13)" style="fill:#76698d"/>
    <path data-name="Path 43263" d="M9.027 18.887a1.962 1.962 0 0 1 .158-2.187 1.962 1.962 0 0 1-.158-2.2l.633-1.1a1.962 1.962 0 0 1 1.7-.978 1.993 1.993 0 0 1 .283.02 2.032 2.032 0 0 1 .091-.185A3.691 3.691 0 0 0 10.37 12H3.717A3.722 3.722 0 0 0 0 15.717v2.739a.587.587 0 0 0 .587.587h8.53z" transform="translate(0 -2.609)" style="fill:#76698d"/>
    <path data-name="Path 43264" d="M19.854 17.28a2.844 2.844 0 0 0 .037-.367 2.974 2.974 0 0 0-.037-.367l.705-.534a.392.392 0 0 0 .1-.508l-.633-1.1a.391.391 0 0 0-.491-.165l-.812.342a2.908 2.908 0 0 0-.641-.381l-.108-.862a.392.392 0 0 0-.385-.338h-1.265a.391.391 0 0 0-.388.343l-.108.862a2.92 2.92 0 0 0-.641.381l-.812-.342a.391.391 0 0 0-.491.165l-.633 1.1a.392.392 0 0 0 .1.508l.705.534a2.844 2.844 0 0 0-.037.367 2.974 2.974 0 0 0 .037.367l-.705.534a.392.392 0 0 0-.1.508l.633 1.1a.391.391 0 0 0 .491.165l.812-.343a2.908 2.908 0 0 0 .641.381l.108.862a.391.391 0 0 0 .387.343h1.265a.391.391 0 0 0 .388-.343l.108-.862a2.92 2.92 0 0 0 .641-.381l.812.342a.391.391 0 0 0 .491-.165l.633-1.1a.392.392 0 0 0-.1-.508zm-2.9 1.2a1.565 1.565 0 1 1 1.565-1.565 1.565 1.565 0 0 1-1.563 1.563z" transform="translate(-2.869 -2.826)" style="fill:#76698d"/>
</svg>
