<svg xmlns="http://www.w3.org/2000/svg" width="19.277" height="20" viewBox="0 0 19.277 20">
    <path d="M5.855 2A3.855 3.855 0 0 0 2 5.855v8.675a3.855 3.855 0 0 0 3.855 3.855h5.06v2.169H8.747a.723.723 0 0 0 0 1.446h5.783a.723.723 0 1 0 0-1.446h-2.169v-2.168h5.06a3.855 3.855 0 0 0 3.855-3.855V5.855A3.855 3.855 0 0 0 17.422 2zm5.783 3.855a1.928 1.928 0 1 1-1.927 1.928 1.928 1.928 0 0 1 1.928-1.928zm-3.855 7.229a1.446 1.446 0 0 1 1.446-1.446h4.819a1.446 1.446 0 1 1 0 2.892H9.229a1.446 1.446 0 0 1-1.446-1.446z" transform="translate(-2 -2)" style="fill:#fff;fill-rule:evenodd"/>
</svg>
