<svg xmlns="http://www.w3.org/2000/svg" width="18.5" height="14" viewBox="0 0 18.5 14">
    <g data-name="Layer 2">
        <path data-name="Path 43250" d="M11.87 17.25h-7.5a3.068 3.068 0 0 1-3.124-3v-8a3.068 3.068 0 0 1 3.124-3h7.5a3.068 3.068 0 0 1 3.124 3v8a3.068 3.068 0 0 1-3.124 3zm-7.5-12.8a1.841 1.841 0 0 0-1.87 1.8v8a1.841 1.841 0 0 0 1.874 1.8h7.5a1.841 1.841 0 0 0 1.874-1.8v-8a1.841 1.841 0 0 0-1.874-1.8z" style="fill:#fff" transform="translate(-1.25 -3.25)"/>
        <path data-name="Path 43251" d="M20.635 16.331a1.656 1.656 0 0 1-1.007-.34l-3.116-2.381a.651.651 0 0 1-.262-.517V9.566a.651.651 0 0 1 .259-.516l3.116-2.38a1.677 1.677 0 0 1 1.709-.187 1.539 1.539 0 0 1 .916 1.391v6.912a1.528 1.528 0 0 1-.915 1.392 1.688 1.688 0 0 1-.7.153zm-3-3.555 2.856 2.183a.24.24 0 0 0 .246.026.22.22 0 0 0 .129-.2V7.874a.219.219 0 0 0-.13-.2.239.239 0 0 0-.244.028l-2.857 2.182z" transform="translate(-3.75 -4.435)" style="fill:#fff"/>
        <path data-name="Path 43252" d="M11.607 8.25H9.893a.65.65 0 0 0 0 1.3h1.714a.65.65 0 0 0 0-1.3z" transform="translate(-1.25 -5.854)" style="fill-rule:evenodd;fill:#fff"/>
    </g>
</svg>
