<svg xmlns="http://www.w3.org/2000/svg" width="14.874" height="13.936" viewBox="0 0 14.874 13.936">
  <defs>
    <style>
      .cls-1 {
        fill: #d1e7ff;
      }

      .cls-1, .cls-2 {
        fill-rule: evenodd;
      }

      .cls-2 {
        fill: #2e58ff;
      }
    </style>
  </defs>
  <g id="like" transform="translate(-0.007 -16.177)">
    <path id="Path_43260" data-name="Path 43260" class="cls-1" d="M15.985,24.364h0a1.407,1.407,0,0,0-1.446.063.378.378,0,0,0-.17.315v2.09L12.51,30.624l-.2-.474a1.029,1.029,0,0,0-.948-.633H9.033a1.028,1.028,0,0,0-1.026,1.027v6.095a1.028,1.028,0,0,0,1.026,1.026h2.331a1.029,1.029,0,0,0,.995-.773l.077-.3.268.162c.091.055.182.11.269.171a.378.378,0,0,0,.218.069h7.018a1.019,1.019,0,0,0,1-.8l1.165-5.275a1.675,1.675,0,0,0-1.636-2.037H17.168l.046-.272c.125-.734.209-1.477.27-2.218a.377.377,0,0,0-.014-.136,3.169,3.169,0,0,0-1.479-1.879l0,0Z" transform="translate(-7.767 -7.782)"/>
    <path id="Path_43261" data-name="Path 43261" class="cls-2" d="M1.227,22.76a.04.04,0,0,1,.039-.039H3.6a.04.04,0,0,1,.039.039v6.095a.04.04,0,0,1-.039.038H1.266a.04.04,0,0,1-.039-.038Zm4.383.555L7.526,19.4a.61.61,0,0,0,.062-.268V17.4a.419.419,0,0,1,.152.046,2.188,2.188,0,0,1,.982,1.191,21.484,21.484,0,0,1-.381,2.7.61.61,0,0,0,.6.74h4.037a.687.687,0,0,1,.671.836l-1.166,5.275a.034.034,0,0,1-.038.03H5.607c-.066-.042-.133-.082-.2-.122a2.625,2.625,0,0,1-.505-.354.6.6,0,0,0-.047-.045v-4.04h.207a.61.61,0,0,0,.548-.342Zm-4.344,6.8H3.6a1.261,1.261,0,0,0,1.22-.948c.095.057.183.112.255.162a.61.61,0,0,0,.352.112h7.018a1.251,1.251,0,0,0,1.229-.987l1.165-5.275a1.908,1.908,0,0,0-1.863-2.319h-3.3c.114-.666.2-1.416.272-2.238a.612.612,0,0,0-.022-.22,3.4,3.4,0,0,0-1.587-2.016l-.012-.007a1.636,1.636,0,0,0-1.685.073.61.61,0,0,0-.274.509v2.036L4.759,22.278A1.261,1.261,0,0,0,3.6,21.5H1.266A1.26,1.26,0,0,0,.007,22.76v6.095a1.26,1.26,0,0,0,1.259,1.259Z"/>
  </g>
</svg>
