<svg xmlns="http://www.w3.org/2000/svg" width="20" height="19.497" viewBox="0 0 20 19.497">
    <g data-name="Group 7810">
        <path data-name="Path 43236" d="M48 19a3 3 0 1 0-3-3 3 3 0 0 0 3 3zm0-1.765A1.235 1.235 0 1 0 46.765 16 1.235 1.235 0 0 0 48 17.235z" transform="translate(-38.5 -13)" style="fill-rule:evenodd;fill:#8798ac"/>
        <path data-name="Path 43237" d="M21 25a2 2 0 1 1-2-2 2 2 0 0 1 2 2zm-1.333 0a.667.667 0 1 1-.667-.667.667.667 0 0 1 .667.667z" transform="translate(-15.5 -21)" style="fill-rule:evenodd;fill:#8798ac"/>
        <path data-name="Path 43234" d="M21.56 10.17a1.021 1.021 0 0 0-.93-.1l-3.722 1.09A3.991 3.991 0 0 1 17 12v7a3.991 3.991 0 0 1-.092.84l3.722 1.09A.937.937 0 0 0 21 21a1.023 1.023 0 0 0 .56-.17A1 1 0 0 0 22 20v-9a1 1 0 0 0-.44-.83z" transform="translate(-2 -2.502)" style="fill:#8798ac"/>
        <path data-name="Exclusion 3" d="M17821-2785h-8a3 3 0 0 1-3-3v-7a3 3 0 0 1 3-3h8a3.006 3.006 0 0 1 3 3v7a3.006 3.006 0 0 1-3 3zm-8.5-11a.5.5 0 0 0-.5.5.5.5 0 0 0 .5.5h9a.5.5 0 0 0 .5-.5.5.5 0 0 0-.5-.5z" transform="translate(-17810 2804.498)" style="fill:#8798ac"/>
    </g>
</svg>
