<svg xmlns="http://www.w3.org/2000/svg" width="20" height="19.998" viewBox="0 0 20 19.998">
    <g data-name="live-streaming (1)" transform="translate(-2 -2.002)">
        <path data-name="Path 43232" d="M5.7 5.344a4.714 4.714 0 0 1 6.6 0 1 1 0 0 0 1.4-1.425 6.721 6.721 0 0 0-9.4 0 1 1 0 0 0 1.4 1.425z" style="fill:#8798ac"/>
        <path data-name="Path 43233" d="M6.7 6.287a1 1 0 1 0 1.4 1.425 1.283 1.283 0 0 1 1.8 0 1 1 0 1 0 1.4-1.425 3.29 3.29 0 0 0-4.6 0z" style="fill:#8798ac"/>
        <path data-name="Path 43234" d="M21.56 10.17a1.021 1.021 0 0 0-.93-.1l-3.722 1.09A3.991 3.991 0 0 1 17 12v7a3.991 3.991 0 0 1-.092.84l3.722 1.09A.937.937 0 0 0 21 21a1.023 1.023 0 0 0 .56-.17A1 1 0 0 0 22 20v-9a1 1 0 0 0-.44-.83z" style="fill:#8798ac"/>
        <rect data-name="Rectangle 1430" width="14" height="13" rx="3" transform="translate(2 9)" style="fill:#8798ac"/>
    </g>
</svg>
