<svg xmlns="http://www.w3.org/2000/svg" width="25.322" height="26.528" viewBox="0 0 25.322 26.528">
    <path data-name="Path 43253" d="M245.569 0a1.206 1.206 0 0 0-1.206 1.206v4.823a1.206 1.206 0 1 0 2.412 0V1.206A1.206 1.206 0 0 0 245.569 0z" transform="translate(-232.305)" style="fill:#2d50a7"/>
    <path data-name="Path 43254" d="M245.571 372.364a1.206 1.206 0 0 0-1.206 1.206v4.823a1.206 1.206 0 0 0 2.412 0v-4.823a1.206 1.206 0 0 0-1.206-1.206z" transform="translate(-232.307 -353.071)" style="fill:#73a1fb"/>
    <path data-name="Path 43255" d="m85.269 71.927-3.411-3.411a1.206 1.206 0 0 0-1.705 1.705l3.411 3.411a1.206 1.206 0 0 0 1.705-1.705z" transform="translate(-76.269 -64.632)" style="fill:#355ec9"/>
    <g data-name="Group 7862">
        <path data-name="Path 43256" d="M410.89 232.727h-2.412a1.206 1.206 0 0 0 0 2.412h2.412a1.206 1.206 0 1 0 0-2.412z" transform="translate(-386.774 -220.669)" style="fill:#c4d9fd"/>
        <path data-name="Path 43257" d="M345.16 331.82a1.206 1.206 0 0 0-1.705 1.705l3.411 3.411a1.206 1.206 0 0 0 1.705-1.705z" transform="translate(-325.928 -314.293)" style="fill:#c4d9fd"/>
    </g>
    <path data-name="Path 43258" d="M18.871 233.933a1.206 1.206 0 0 0-1.206-1.206h-4.823a1.206 1.206 0 1 0 0 2.412h4.823a1.206 1.206 0 0 0 1.206-1.206z" transform="translate(-11.636 -220.669)" style="fill:#3d6deb"/>
    <path data-name="Path 43259" d="M85.27 331.819a1.206 1.206 0 0 0-1.705 0l-3.411 3.411a1.206 1.206 0 0 0 1.705 1.705l3.411-3.411a1.206 1.206 0 0 0 0-1.705z" transform="translate(-76.269 -314.292)" style="fill:#5286fa"/>
</svg>
