<svg xmlns="http://www.w3.org/2000/svg" width="166" height="93" viewBox="0 0 166 93">
    <g data-name="Group 8111">
        <path data-name="Rectangle 352" style="fill:#f2f2fd" d="M0 0h166v93H0z"/>
        <path data-name="Icon metro-image" d="M37.545 6.188v27.978H4.907V6.192zm0-2.332H4.9a2.339 2.339 0 0 0-2.329 2.332v27.983A2.339 2.339 0 0 0 4.9 36.5h32.649a2.339 2.339 0 0 0 2.332-2.332V6.188a2.339 2.339 0 0 0-2.332-2.332zm-4.664 8.162a3.5 3.5 0 1 1-3.5-3.5 3.5 3.5 0 0 1 3.5 3.5zm2.332 19.821H7.234v-4.664L15.4 13.184l9.328 11.659h2.332l8.162-7z" transform="translate(61.774 11.997)" style="fill:#4ab2c1"/>
        <text data-name="No preview available" transform="translate(15 74)" style="fill:#4c5967;font-size:14px;font-family:Inter"><tspan x="0" y="0">No preview available</tspan></text>
    </g>
</svg>
