<svg xmlns="http://www.w3.org/2000/svg" width="36.374" height="34.451" viewBox="0 0 36.374 34.451">
    <path data-name="Path 43437" d="M18.187 27.28H3.552a2.134 2.134 0 0 1-2.131-2.131V3.552a2.134 2.134 0 0 1 2.131-2.131h25.433a2.134 2.134 0 0 1 2.131 2.131v13.674a.71.71 0 1 0 1.421 0V3.552A3.556 3.556 0 0 0 28.985 0H3.552A3.556 3.556 0 0 0 0 3.552v21.6A3.556 3.556 0 0 0 3.552 28.7h14.635a.71.71 0 0 0 0-1.421zm0 0" style="fill:#8994a5"/>
    <path data-name="Path 43438" d="M439.213 271.884a.71.71 0 1 0-.5.208.716.716 0 0 0 .5-.208zm0 0" transform="translate(-406.883 -251.443)" style="fill:#8994a5"/>
    <path data-name="Path 43439" d="M301.882 365.421h-2.538a2.131 2.131 0 0 0-4.018 0h-8.038a.71.71 0 1 0 0 1.421h8.038a2.131 2.131 0 0 0 4.018 0h2.538a.71.71 0 1 0 0-1.421zm-4.547 1.421a.71.71 0 1 1 .71-.71.711.711 0 0 1-.709.71zm0 0" transform="translate(-266.219 -338.14)" style="fill:#8994a5"/>
    <path data-name="Path 43440" d="M301.879 426.358h-8.038a2.131 2.131 0 0 0-4.018 0h-2.538a.71.71 0 1 0 0 1.421h2.538a2.131 2.131 0 0 0 4.018 0h8.038a.71.71 0 0 0 0-1.421zm-10.047 1.421a.71.71 0 1 1 .71-.71.711.711 0 0 1-.71.71zm0 0" transform="translate(-266.215 -394.749)" style="fill:#8994a5"/>
    <path data-name="Path 43441" d="M291.835 303.063a2.135 2.135 0 0 0-2.009 1.421h-2.538a.71.71 0 0 0 0 1.421h2.538a2.131 2.131 0 0 0 4.018 0h8.038a.71.71 0 0 0 0-1.421h-8.038a2.135 2.135 0 0 0-2.009-1.421zm0 2.842a.71.71 0 1 1 .71-.71.711.711 0 0 1-.71.705zm0 0" transform="translate(-266.219 -281.532)" style="fill:#8994a5"/>
    <path data-name="Path 43442" d="M132.887 104.4a7.959 7.959 0 1 0-7.959 7.959 7.968 7.968 0 0 0 7.959-7.959zm-7.959 6.538a6.538 6.538 0 1 1 6.538-6.538 6.546 6.546 0 0 1-6.538 6.535zm0 0" transform="translate(-108.659 -89.586)" style="fill:#8994a5"/>
    <path data-name="Path 43443" d="m195.2 153.369-3.854-2.47a1.57 1.57 0 0 0-2.417 1.321v4.941a1.57 1.57 0 0 0 2.417 1.322l3.854-2.47a1.57 1.57 0 0 0 0-2.643zm-.766 1.447-3.854 2.47a.149.149 0 0 1-.229-.125v-4.941a.14.14 0 0 1 .077-.131.149.149 0 0 1 .072-.02.145.145 0 0 1 .08.025l3.854 2.47a.149.149 0 0 1 0 .25zm0 0" transform="translate(-175.504 -139.948)" style="fill:#8994a5"/>
    <path data-name="Path 43444" d="M48 170.9v6.927a.71.71 0 1 0 1.421 0V170.9a.71.71 0 0 0-1.421 0zm0 0" transform="translate(-44.59 -158.101)" style="fill:#8994a5"/>
    <path data-name="Path 43445" d="M49.213 129.458a.71.71 0 1 0 .208.5.713.713 0 0 0-.208-.5zm0 0" transform="translate(-44.59 -120.068)" style="fill:#8994a5"/>
</svg>
