<svg xmlns="http://www.w3.org/2000/svg" width="33" height="24" viewBox="0 0 33 24">
    <g data-name="Group 5141">
        <path data-name="Path 4632" d="M25.785 90.65H18.7V83.5h2.34a.732.732 0 0 0 .593-1.159l-4.551-6.295a.726.726 0 0 0-1.18 0l-4.547 6.294a.73.73 0 0 0 .593 1.159h2.34v7.151H6.359A7.089 7.089 0 0 1 0 83.56a6.713 6.713 0 0 1 3.331-5.8 4.5 4.5 0 0 1-.276-1.57 4.566 4.566 0 0 1 4.572-4.569 4.5 4.5 0 0 1 1.564.276 9.153 9.153 0 0 1 17.39 3.019 7.958 7.958 0 0 1-.8 15.73z" transform="translate(0 -66.65)" style="fill:#93bddb"/>
    </g>
</svg>
