<svg xmlns="http://www.w3.org/2000/svg" width="36.5" height="36.5" viewBox="0 0 36.5 36.5">
    <g data-name="Group 8163">
        <path data-name="Path 43366" d="m125.269 124.088-5.907 4.43a1.477 1.477 0 0 1-2.362-1.181v-8.861a1.477 1.477 0 0 1 2.362-1.182l5.907 4.43a1.477 1.477 0 0 1 0 2.364z" transform="translate(-107.611 -107.61)" style="fill:none;stroke:#8994a4;stroke-linecap:round;stroke-linejoin:round;stroke-width:1.5px"/>
        <path data-name="Path 43367" d="M24.038 37H5.43A4.43 4.43 0 0 0 1 41.43V56.2a4.43 4.43 0 0 0 4.43 4.43h18.608" transform="translate(-.176 -33.518)" style="fill:none;stroke:#8994a4;stroke-linecap:round;stroke-linejoin:round;stroke-width:1.5px"/>
        <path data-name="Path 43368" d="M393 37h1.477a4.43 4.43 0 0 1 4.43 4.43V56.2a4.43 4.43 0 0 1-4.43 4.43H393" transform="translate(-363.625 -33.518)" style="fill:none;stroke:#8994a4;stroke-linecap:round;stroke-linejoin:round;stroke-width:1.5px"/>
        <path data-name="Line 124" transform="translate(18.964 .75)" style="fill:none;stroke:#8994a4;stroke-linecap:round;stroke-linejoin:round;stroke-width:1.5px" d="M0 0v28.966"/>
        <path data-name="Line 125" transform="translate(.75 35.75)" style="fill:none;stroke:#8994a4;stroke-linecap:round;stroke-linejoin:round;stroke-width:1.5px" d="M0 0h5.632"/>
        <path data-name="Line 126" transform="translate(10.807 32.532)" style="fill:none;stroke:#8994a4;stroke-linecap:round;stroke-linejoin:round;stroke-width:1.5px" d="M0 0h2.816"/>
        <path data-name="Line 127" transform="translate(18.451 35.75)" style="fill:none;stroke:#8994a4;stroke-linecap:round;stroke-linejoin:round;stroke-width:1.5px" d="M0 0h5.23"/>
        <path data-name="Line 128" transform="translate(29.715 32.532)" style="fill:none;stroke:#8994a4;stroke-linecap:round;stroke-linejoin:round;stroke-width:1.5px" d="M0 0h6.035"/>
    </g>
</svg>
