<svg xmlns="http://www.w3.org/2000/svg" width="192.041" height="152.866" viewBox="0 0 192.041 152.866">
    <g data-name="Group 8150" transform="translate(167.5 -2378.5)" style="opacity:.251">
        <circle data-name="Ellipse 75" cx="21.369" cy="21.369" r="21.369" transform="translate(-61.996 2470.601)" style="fill:#7bd4ea"/>
        <path data-name="Line 132" transform="translate(-40.821 2491.853)" style="stroke-miterlimit:10;stroke-width:2px;stroke:#3f3d56;fill:#3f3d56" d="M0 38.763.175 0"/>
        <circle data-name="Ellipse 76" cx="5.482" cy="5.482" r="5.482" transform="translate(-46.127 2486.371)" style="stroke:#120625;fill:#120625"/>
        <path data-name="Path 43427" d="M500.1 487.38s-.707-16.846-16.769-14.961" transform="translate(-540.856 2028.363)" style="stroke:#120625;fill:#120625"/>
        <circle data-name="Ellipse 77" cx="21.369" cy="21.369" r="21.369" transform="translate(-151.515 2427.698)" style="fill:#7bd4ea"/>
        <path data-name="Line 133" transform="translate(-131.356 2451.953)" style="stroke:#120625;stroke-miterlimit:10;stroke-width:2px;fill:#3f3d56" d="M0 78.913 1.23 0"/>
        <circle data-name="Ellipse 78" cx="5.482" cy="5.482" r="5.482" transform="translate(-135.607 2443.562)" style="stroke:#120625;fill:#120625"/>
        <path data-name="Path 43428" d="M243.52 360.019s-.521-16.853-16.6-15.145" transform="translate(-373.994 2111.346)" style="stroke:#120625;fill:#120625"/>
        <path data-name="Path 43429" d="M241.616 482.441s4.028-32.33-16.305-34.213" transform="translate(-372.948 2044.009)" style="stroke:#120625;fill:#120625;stroke-miterlimit:10;stroke-width:2px"/>
        <circle data-name="Ellipse 79" cx="5.482" cy="5.482" r="5.482" transform="translate(-156.997 2484.226)" style="stroke:#120625;fill:#120625"/>
        <circle data-name="Ellipse 80" cx="21.369" cy="21.369" r="21.369" transform="translate(-105.561 2380.257)" style="fill:#7bd4ea"/>
        <path data-name="Line 134" transform="translate(-84.178 2401.705)" style="stroke:#120625;stroke-miterlimit:10;stroke-width:2px;fill:#3f3d56" d="M0 129.295V0"/>
        <circle data-name="Ellipse 81" cx="5.482" cy="5.482" r="5.482" transform="translate(-89.66 2396.162)" style="stroke:#120625;fill:#120625"/>
        <circle data-name="Ellipse 82" cx="5.482" cy="5.482" r="5.482" transform="translate(-106.496 2489.708)" style="stroke:#120625;fill:#120625"/>
        <path data-name="Path 43430" d="M375.641 240.978s-.783-16.843-16.836-14.885" transform="translate(-459.819 2188.666)" style="stroke:#120625;fill:#120625"/>
        <path data-name="Path 43431" d="M375.641 377.69s-.783-16.843-16.836-14.885" transform="translate(-459.819 2099.701)" style="stroke:#120625;fill:#120625"/>
        <path data-name="Path 43432" d="M375.641 490.984s3.524-32.738-16.836-34.3" transform="translate(-459.819 2038.509)" style="fill:none;stroke-miterlimit:10;stroke-width:2px;stroke:#3f3d56"/>
        <circle data-name="Ellipse 83" cx="5.482" cy="5.482" r="5.482" transform="translate(-72.487 2438.288)" style="stroke:#120625;fill:#120625"/>
        <path data-name="Path 43433" d="M407.541 342.01s-3.524-30.991 16.836-32.558" transform="translate(-491.382 2134.317)" style="fill:none;stroke:#120625;stroke-miterlimit:10;stroke-width:2px"/>
        <path data-name="Path 43434" d="M523.554 245.367a7.684 7.684 0 1 1 7.684-7.684 7.684 7.684 0 0 1-7.684 7.684zm0-14.669a6.985 6.985 0 1 0 6.985 6.985 6.985 6.985 0 0 0-6.985-6.983z" transform="translate(-562.029 2186.021)" style="stroke:#120625;fill:#3f3d56"/>
        <path data-name="Path 43435" d="M177.554 139.367a7.684 7.684 0 1 1 7.684-7.684 7.684 7.684 0 0 1-7.684 7.684zm0-14.669a6.985 6.985 0 1 0 6.985 6.985 6.985 6.985 0 0 0-6.985-6.983z" transform="translate(-336.871 2255)" style="stroke:#120625;fill:#3f3d56"/>
        <path data-name="Path 43436" d="M680.554 465.367a7.684 7.684 0 1 1 7.684-7.684 7.684 7.684 0 0 1-7.684 7.684zm0-14.669a6.985 6.985 0 1 0 6.985 6.985 6.985 6.985 0 0 0-6.985-6.983z" transform="translate(-664.197 2042.856)" style="stroke:#120625;fill:#3f3d56"/>
        <circle data-name="Ellipse 84" cx="4.653" cy="4.653" r="4.653" transform="translate(-20.63 2439.043)" style="stroke:#120625;fill:#120625"/>
        <circle data-name="Ellipse 85" cx="4.653" cy="4.653" r="4.653" transform="translate(14.734 2521.56)" style="stroke:#120625;fill:#120625"/>
    </g>
</svg>
