<svg xmlns="http://www.w3.org/2000/svg" width="36.764" height="33.385" viewBox="0 0 36.764 33.385">
    <g data-name="Group 8172">
        <g data-name="Group 8130">
            <path data-name="Path 43369" d="M36.264 59.106v11.811a1.765 1.765 0 0 1-1.687 1.834H2.687A1.765 1.765 0 0 1 1 70.917h0V51.584a1.765 1.765 0 0 1 1.687-1.834h17.068" transform="translate(-.25 -45.66)" style="fill:none;stroke:#8994a4;stroke-linecap:round;stroke-linejoin:round;stroke-width:1.5px"/>
            <path data-name="Rectangle 1467" transform="translate(15.625 27.09)" style="fill:none;stroke:#8994a4;stroke-linecap:round;stroke-linejoin:round;stroke-width:1.5px" d="M0 0h5.514v5.544H0z"/>
            <path data-name="Line 129" transform="translate(13.288 32.635)" style="fill:none;stroke:#8994a4;stroke-linecap:round;stroke-linejoin:round;stroke-width:1.5px" d="M0 0h10.189"/>
            <path data-name="Path 43370" d="M312.336 1h-6.628a1 1 0 0 0-1.02.985v8.041a1 1 0 0 0 1.02.985h2.21a.783.783 0 0 1 .8.769v1.269a.508.508 0 0 0 .516.5.529.529 0 0 0 .289-.086l3.271-2.138a1.931 1.931 0 0 1 1.056-.313h3.538a1 1 0 0 0 1.02-.985V1.985A1 1 0 0 0 317.383 1h-2.543" transform="translate(-282.389 -.25)" style="fill:none;stroke:#8994a4;stroke-linecap:round;stroke-linejoin:round;stroke-width:1.5px"/>
            <path data-name="Path 43371" d="M339.878 41.764a2.28 2.28 0 0 0-3.1.582 2.107 2.107 0 0 0 .6 2.989 2.286 2.286 0 0 0 1.246.368 1.783 1.783 0 0 0 1.4-.608" transform="translate(-311.853 -37.878)" style="fill:none;stroke:#8994a4;stroke-linecap:round;stroke-linejoin:round;stroke-width:1.5px"/>
            <path data-name="Path 43372" d="M418.535 41.764a2.28 2.28 0 0 0-3.1.582 2.107 2.107 0 0 0 .6 2.989 2.287 2.287 0 0 0 1.246.368 1.783 1.783 0 0 0 1.4-.608" transform="translate(-384.93 -37.878)" style="fill:none;stroke:#8994a4;stroke-linecap:round;stroke-linejoin:round;stroke-width:1.5px"/>
            <path data-name="Path 43373" d="m208.608 145.278-1.949 1.135a.674.674 0 0 1-.906-.216.621.621 0 0 1-.095-.329v-6.92a.649.649 0 0 1 .659-.638.677.677 0 0 1 .342.092l5.729 3.338a.765.765 0 0 1 .275 1.071.8.8 0 0 1-.275.265l-1.7.99" transform="translate(-190.387 -126.818)" style="fill:none;stroke:#8994a4;stroke-linecap:round;stroke-linejoin:round;stroke-width:1.5px"/>
        </g>
    </g>
</svg>
