<svg xmlns="http://www.w3.org/2000/svg" width="53" height="41.872" viewBox="0 0 53 41.872">
    <g data-name="Group 8187" transform="translate(-264.25 -199.25)">
        <path data-name="Path 43262" d="m422.8 146.684 10.365-5.613v30.081l-10.365-5.613" transform="translate(-117.162 64.429)" style="fill:none;stroke:#598eff;stroke-linecap:round;stroke-linejoin:round;stroke-miterlimit:10;stroke-width:2.5px"/>
        <rect data-name="Rectangle 1488" width="39.372" height="39.372" rx="5" transform="translate(265.5 200.5)" style="fill:none;stroke:#598eff;stroke-linecap:round;stroke-linejoin:round;stroke-miterlimit:10;stroke-width:2.5px"/>
        <g data-name="Group 8186">
            <path data-name="Path 43532" d="M7.146-3.04a3.469 3.469 0 0 1-.02.41 1.239 1.239 0 0 1-.061.276.356.356 0 0 1-.1.158.221.221 0 0 1-.142.049H2.01a.663.663 0 0 1-.45-.158.649.649 0 0 1-.183-.515v-9.533a.226.226 0 0 1 .053-.147.37.37 0 0 1 .174-.105 1.709 1.709 0 0 1 .329-.065 4.533 4.533 0 0 1 .515-.024 4.511 4.511 0 0 1 .519.024 1.7 1.7 0 0 1 .325.065.37.37 0 0 1 .174.105.226.226 0 0 1 .053.146v8.446h3.3a.234.234 0 0 1 .142.045.325.325 0 0 1 .1.146 1.1 1.1 0 0 1 .061.268 3.469 3.469 0 0 1 .024.409zm3.4.6a.226.226 0 0 1-.053.146.37.37 0 0 1-.174.105 1.7 1.7 0 0 1-.325.065 4.51 4.51 0 0 1-.519.024 4.532 4.532 0 0 1-.515-.024 1.709 1.709 0 0 1-.329-.065.37.37 0 0 1-.174-.105.226.226 0 0 1-.057-.146v-9.915a.226.226 0 0 1 .053-.146.372.372 0 0 1 .178-.105 1.8 1.8 0 0 1 .329-.065 4.422 4.422 0 0 1 .511-.024 4.511 4.511 0 0 1 .519.024 1.7 1.7 0 0 1 .325.065.37.37 0 0 1 .174.105.226.226 0 0 1 .053.146zm7.513-.081a.685.685 0 0 1-.105.223.4.4 0 0 1-.211.13 1.694 1.694 0 0 1-.4.057q-.252.012-.657.012h-.556q-.231 0-.393-.02a1.32 1.32 0 0 1-.264-.049.624.624 0 0 1-.17-.081.336.336 0 0 1-.105-.118 1.018 1.018 0 0 1-.069-.174l-3.124-9.306a2.5 2.5 0 0 1-.118-.462.27.27 0 0 1 .081-.256.625.625 0 0 1 .345-.105q.243-.02.682-.02.373 0 .584.016a1.311 1.311 0 0 1 .325.057.276.276 0 0 1 .158.122 1.238 1.238 0 0 1 .085.2L16.7-4.2h.008l2.507-8.057a.844.844 0 0 1 .081-.223.325.325 0 0 1 .166-.134 1.137 1.137 0 0 1 .337-.065q.219-.016.6-.016a5.283 5.283 0 0 1 .58.024.422.422 0 0 1 .284.118.317.317 0 0 1 .049.264 3.021 3.021 0 0 1-.126.454zm10.823-.462a3.179 3.179 0 0 1-.02.393 1.014 1.014 0 0 1-.061.256.326.326 0 0 1-.1.142.221.221 0 0 1-.134.045h-5.276a.663.663 0 0 1-.45-.158.649.649 0 0 1-.183-.515v-9.152a.649.649 0 0 1 .183-.515.663.663 0 0 1 .45-.158h5.241a.218.218 0 0 1 .13.041.312.312 0 0 1 .1.142 1.082 1.082 0 0 1 .061.26 3.259 3.259 0 0 1 .02.4 3.1 3.1 0 0 1-.02.385 1.014 1.014 0 0 1-.061.256.345.345 0 0 1-.1.142.2.2 0 0 1-.13.045h-3.748v2.564h3.172a.221.221 0 0 1 .134.045.328.328 0 0 1 .1.138.95.95 0 0 1 .061.252 3.1 3.1 0 0 1 .02.385 3.077 3.077 0 0 1-.02.389.942.942 0 0 1-.061.247.3.3 0 0 1-.1.134.236.236 0 0 1-.134.041h-3.172v2.961h3.781a.221.221 0 0 1 .134.045.326.326 0 0 1 .1.142 1.014 1.014 0 0 1 .061.256 3.179 3.179 0 0 1 .021.391z" transform="translate(269.623 227.696)" style="fill:#4690ff"/>
        </g>
    </g>
</svg>
