<svg xmlns="http://www.w3.org/2000/svg" width="35" height="28" viewBox="0 0 35 28">
    <path data-name="Path 43529" d="M10.819 8.119a.877.877 0 0 0-1.319.758v12.279a.877.877 0 0 0 1.319.758l10.525-6.14a.877.877 0 0 0 0-1.515zm8.342 6.9-7.907 4.613V10.4z" transform="translate(3.608 -1.017)" style="fill:#8694a6;fill-rule:evenodd"/>
    <path data-name="Path 43530" d="M2 7.5A3.5 3.5 0 0 1 5.5 4h28A3.5 3.5 0 0 1 37 7.5v21a3.5 3.5 0 0 1-3.5 3.5h-28A3.5 3.5 0 0 1 2 28.5zm3.5-1.75h28a1.75 1.75 0 0 1 1.75 1.75v21a1.75 1.75 0 0 1-1.75 1.75h-28a1.75 1.75 0 0 1-1.75-1.75v-21A1.75 1.75 0 0 1 5.5 5.75z" style="fill:#8694a6;fill-rule:evenodd" transform="translate(-2 -4)"/>
</svg>
