<svg xmlns="http://www.w3.org/2000/svg" width="52" height="42.545" viewBox="0 0 52 42.545">
    <g data-name="upload (2)">
        <path data-name="Path 43265" d="M49.7 101.818H27.242a3.549 3.549 0 0 1-3.542-3.545h24.815a1.182 1.182 0 1 0 0-2.364H23.7v-26a3.549 3.549 0 0 1 3.545-3.545H65.06a3.549 3.549 0 0 1 3.545 3.545V83.5a1.182 1.182 0 1 0 2.364 0V69.909A5.916 5.916 0 0 0 65.06 64H27.242a5.916 5.916 0 0 0-5.909 5.909v28.364a5.916 5.916 0 0 0 5.909 5.909H49.7a1.182 1.182 0 1 0 0-2.364z" style="fill:#658df7" transform="translate(-21.333 -64)"/>
        <path data-name="Path 43266" d="M179.368 141.218a2.246 2.246 0 0 0-3.368 1.945v13.919a2.241 2.241 0 0 0 3.368 1.945l12.055-6.96a2.245 2.245 0 0 0 0-3.889zm-1 15.659v-13.51l11.7 6.755z" transform="translate(-158.863 -132.395)" style="fill:#658df7"/>
        <path data-name="Path 43267" d="M367.638 309.68a1.182 1.182 0 0 0-1.671 0l-2.955 2.955a1.182 1.182 0 0 0 1.671 1.671l.937-.937v5.42a1.182 1.182 0 1 0 2.364 0v-5.42l.937.937a1.182 1.182 0 1 0 1.671-1.671z" transform="translate(-324.847 -282.152)" style="fill:#658df7"/>
        <path data-name="Path 43268" d="M319.379 266.667a10.045 10.045 0 1 0 10.046 10.045 10.045 10.045 0 0 0-10.046-10.045zm0 17.727a7.682 7.682 0 1 1 7.682-7.682 7.682 7.682 0 0 1-7.682 7.682z" transform="translate(-277.424 -244.212)" style="fill:#658df7"/>
    </g>
</svg>
