<svg xmlns="http://www.w3.org/2000/svg" width="32.188" height="35.375" viewBox="0 0 32.188 35.375">
    <defs>
        <clipPath id="ozkmjz9z6a">
            <path data-name="Rectangle 1481" style="fill:#8994a6" d="M0 0h32.188v35.375H0z"/>
        </clipPath>
    </defs>
    <g data-name="Group 8173" style="clip-path:url(#ozkmjz9z6a)">
        <path data-name="Path 43516" d="M16.1 35.375a.7.7 0 0 1-.219-.037C13.227 34.457 0 29.38 0 15.793V5.785A.7.7 0 0 1 .564 5.1 50.365 50.365 0 0 0 15.769.08a.832.832 0 0 1 .358-.08.819.819 0 0 1 .337.071A49.1 49.1 0 0 0 31.649 5.1a.7.7 0 0 1 .539.681v10.01c0 13.62-13.225 18.671-15.877 19.544a.675.675 0 0 1-.211.038M15.864 1.6A49.732 49.732 0 0 1 1.888 6.26l-.478.084v9.449c0 11.98 11.1 16.863 14.5 18.075l.2.07.195-.07c3.4-1.211 14.5-6.094 14.5-18.075v-9.45l-.479-.084A49.111 49.111 0 0 1 16.391 1.6l-.263-.135zm-2.108 22.306a2.647 2.647 0 0 1-1.29-.341 2.571 2.571 0 0 1-1.348-2.275v-7.651a2.64 2.64 0 0 1 4.012-2.229l6.47 3.928a2.479 2.479 0 0 1 .824 3.418 2.507 2.507 0 0 1-.824.819l-6.466 3.931a2.637 2.637 0 0 1-1.375.4m0-11.476a1.277 1.277 0 0 0-.6.152 1.2 1.2 0 0 0-.632 1.064v7.644a1.2 1.2 0 0 0 .629 1.059 1.238 1.238 0 0 0 1.244-.029l6.46-3.922a1.079 1.079 0 0 0 0-1.844l-6.46-3.936a1.161 1.161 0 0 0-.215-.107l-.031-.079z" style="fill:#8994a6"/>
    </g>
</svg>
