<svg xmlns="http://www.w3.org/2000/svg" width="35" height="26" viewBox="0 0 35 26">
    <g data-name="Group 8183">
        <g data-name="Group 8182">
            <path data-name="Path 43525" d="M32.083 64H2.917A2.906 2.906 0 0 0 0 66.889v20.222A2.906 2.906 0 0 0 2.917 90h29.166A2.906 2.906 0 0 0 35 87.111V66.889A2.906 2.906 0 0 0 32.083 64zm1.458 23.111a1.453 1.453 0 0 1-1.458 1.444H2.917a1.453 1.453 0 0 1-1.458-1.444V66.889a1.453 1.453 0 0 1 1.458-1.444h29.166a1.453 1.453 0 0 1 1.458 1.444z" transform="translate(0 -64)" style="fill:#8395aa"/>
            <path data-name="Path 43526" d="M71.029 374.072h-23.5a1.395 1.395 0 0 0-2.462 0h-1.674a.739.739 0 0 0 0 1.478h1.678a1.4 1.4 0 0 0 2.462 0h23.5a.739.739 0 0 0 0-1.477z" transform="translate(-39.711 -352.504)" style="fill:#8395aa"/>
            <path data-name="Path 43527" d="M182.073 199.387a.738.738 0 0 0 .739-.739v-.739h1.477v.739a.739.739 0 1 0 1.478 0v-4.432a2.216 2.216 0 0 0-4.432 0v4.432a.738.738 0 0 0 .738.739zm.739-5.171a.739.739 0 1 1 1.477 0v2.216h-1.477z" transform="translate(-168.961 -183.41)" style="fill:#8395aa"/>
            <path data-name="Path 43528" d="M267.4 199.387h1.477a2.219 2.219 0 0 0 2.216-2.216v-2.955a2.219 2.219 0 0 0-2.211-2.216H267.4a.738.738 0 0 0-.739.739v5.91a.738.738 0 0 0 .739.738zm.739-5.91h.739a.74.74 0 0 1 .739.739v2.955a.74.74 0 0 1-.739.739h-.739z" transform="translate(-248.471 -183.41)" style="fill:#8395aa"/>
        </g>
    </g>
</svg>
