<svg xmlns="http://www.w3.org/2000/svg" width="53" height="41.872" viewBox="0 0 53 41.872">
    <g data-name="Group 8187" transform="translate(-264.25 -199.25)">
        <path data-name="Path 43262" d="m422.8 146.684 10.365-5.613v30.081l-10.365-5.613" transform="translate(-117.162 64.429)" style="stroke-width:2.5px;fill:none;stroke:#598eff;stroke-linecap:round;stroke-linejoin:round;stroke-miterlimit:10"/>
        <rect data-name="Rectangle 1488" width="39.372" height="39.372" rx="5" transform="translate(265.5 200.5)" style="stroke-width:2.5px;fill:none;stroke:#598eff;stroke-linecap:round;stroke-linejoin:round;stroke-miterlimit:10"/>
        <g data-name="Group 8186">
            <g data-name="Group 8185" transform="translate(1.797 1.977)">
                <circle data-name="Ellipse 47" cx="1.898" cy="1.898" transform="translate(270.368 223.5)" style="stroke-width:2px;fill:none;stroke:#598eff;stroke-linecap:round;stroke-linejoin:round;stroke-miterlimit:10" r="1.898"/>
                <path data-name="Path 43531" d="M7.878-4.1a.264.264 0 0 1-.027.125.216.216 0 0 1-.129.085 1.277 1.277 0 0 1-.3.047q-.2.014-.535.014-.284 0-.454-.014a1 1 0 0 1-.265-.057.29.29 0 0 1-.139-.095.53.53 0 0 1-.068-.139l-.785-1.954q-.142-.332-.276-.589a1.88 1.88 0 0 0-.3-.43 1.1 1.1 0 0 0-.383-.261 1.324 1.324 0 0 0-.5-.088h-.559v3.339A.188.188 0 0 1 3.114-4a.309.309 0 0 1-.146.088 1.421 1.421 0 0 1-.271.054 3.765 3.765 0 0 1-.433.02 3.783 3.783 0 0 1-.43-.02 1.427 1.427 0 0 1-.274-.054A.285.285 0 0 1 1.418-4a.2.2 0 0 1-.041-.122v-7.958a.541.541 0 0 1 .152-.43.554.554 0 0 1 .376-.132h2.269q.345 0 .569.014t.406.034a3.692 3.692 0 0 1 .952.257 2.281 2.281 0 0 1 .718.477 1.987 1.987 0 0 1 .45.7 2.552 2.552 0 0 1 .156.924 2.715 2.715 0 0 1-.112.8 2.057 2.057 0 0 1-.328.647 2.161 2.161 0 0 1-.535.494 2.9 2.9 0 0 1-.725.339 2.018 2.018 0 0 1 .369.23 1.949 1.949 0 0 1 .325.328 3.158 3.158 0 0 1 .288.44 5.673 5.673 0 0 1 .264.559l.738 1.727q.1.257.135.376a.726.726 0 0 1 .034.196zm-2.3-5.946a1.3 1.3 0 0 0-.2-.731 1.068 1.068 0 0 0-.643-.42 2.468 2.468 0 0 0-.308-.054 4.327 4.327 0 0 0-.477-.02h-.8v2.481h.907a2.173 2.173 0 0 0 .664-.091 1.325 1.325 0 0 0 .479-.258 1.053 1.053 0 0 0 .284-.4 1.34 1.34 0 0 0 .099-.511zM14.461-7.3a.657.657 0 0 1-.139.461.5.5 0 0 1-.383.149h-3.677a2.51 2.51 0 0 0 .091.7 1.337 1.337 0 0 0 .291.535 1.269 1.269 0 0 0 .515.335 2.2 2.2 0 0 0 .756.12 4.248 4.248 0 0 0 .786-.064 5.209 5.209 0 0 0 .586-.142q.247-.078.41-.142a.76.76 0 0 1 .264-.064.2.2 0 0 1 .1.024.176.176 0 0 1 .068.085.566.566 0 0 1 .037.173q.01.112.01.281 0 .149-.007.254a1.6 1.6 0 0 1-.02.179.43.43 0 0 1-.041.125.47.47 0 0 1-.071.1.823.823 0 0 1-.24.129 3.806 3.806 0 0 1-.5.159 6.856 6.856 0 0 1-.7.135 5.8 5.8 0 0 1-.84.058 4.446 4.446 0 0 1-1.412-.2 2.514 2.514 0 0 1-1.012-.616 2.564 2.564 0 0 1-.605-1.054 4.9 4.9 0 0 1-.2-1.476 4.692 4.692 0 0 1 .21-1.453 3.046 3.046 0 0 1 .61-1.1 2.621 2.621 0 0 1 .972-.687 3.344 3.344 0 0 1 1.29-.237 3.378 3.378 0 0 1 1.3.223 2.34 2.34 0 0 1 .884.62 2.5 2.5 0 0 1 .508.938 4.085 4.085 0 0 1 .163 1.178zm-1.652-.488a1.752 1.752 0 0 0-.288-1.128 1.113 1.113 0 0 0-.952-.41A1.236 1.236 0 0 0 11-9.2a1.158 1.158 0 0 0-.4.328 1.5 1.5 0 0 0-.244.488 2.429 2.429 0 0 0-.1.6zm7.626 2.723q0 .176-.01.295a1.723 1.723 0 0 1-.027.2.614.614 0 0 1-.041.132.49.49 0 0 1-.1.129 1.49 1.49 0 0 1-.278.19 2.741 2.741 0 0 1-.447.2 3.62 3.62 0 0 1-.545.142 3.345 3.345 0 0 1-.606.054 3.29 3.29 0 0 1-1.236-.217 2.319 2.319 0 0 1-.9-.64 2.814 2.814 0 0 1-.552-1.033 4.777 4.777 0 0 1-.186-1.4 4.838 4.838 0 0 1 .227-1.568 3 3 0 0 1 .633-1.094 2.526 2.526 0 0 1 .962-.643 3.421 3.421 0 0 1 1.219-.21 2.966 2.966 0 0 1 .532.047 3.077 3.077 0 0 1 .488.129 2.614 2.614 0 0 1 .406.183 1.242 1.242 0 0 1 .254.176.709.709 0 0 1 .1.125.427.427 0 0 1 .047.132 1.722 1.722 0 0 1 .027.2q.01.119.01.288a1.564 1.564 0 0 1-.068.552q-.068.159-.176.159a.417.417 0 0 1-.244-.095q-.129-.095-.3-.21a2.273 2.273 0 0 0-.42-.21 1.607 1.607 0 0 0-.582-.095 1.158 1.158 0 0 0-1.016.511 2.644 2.644 0 0 0-.352 1.5 3.762 3.762 0 0 0 .088.86 1.832 1.832 0 0 0 .261.623 1.1 1.1 0 0 0 .433.376 1.384 1.384 0 0 0 .606.125 1.583 1.583 0 0 0 .606-.1 2.468 2.468 0 0 0 .444-.234q.19-.129.318-.234a.377.377 0 0 1 .217-.1.153.153 0 0 1 .1.034.24.24 0 0 1 .064.125 1.539 1.539 0 0 1 .037.234q.006.138.006.362z" transform="translate(276.273 233.637)" style="fill:#4690ff"/>
            </g>
            <path data-name="Path 43532" d="M7.146-3.04a3.469 3.469 0 0 1-.02.41 1.239 1.239 0 0 1-.061.276.356.356 0 0 1-.1.158.221.221 0 0 1-.142.049H2.01a.663.663 0 0 1-.45-.158.649.649 0 0 1-.183-.515v-9.533a.226.226 0 0 1 .053-.147.37.37 0 0 1 .174-.105 1.709 1.709 0 0 1 .329-.065 4.533 4.533 0 0 1 .515-.024 4.511 4.511 0 0 1 .519.024 1.7 1.7 0 0 1 .325.065.37.37 0 0 1 .174.105.226.226 0 0 1 .053.146v8.446h3.3a.234.234 0 0 1 .142.045.325.325 0 0 1 .1.146 1.1 1.1 0 0 1 .061.268 3.469 3.469 0 0 1 .024.409zm3.4.6a.226.226 0 0 1-.053.146.37.37 0 0 1-.174.105 1.7 1.7 0 0 1-.325.065 4.51 4.51 0 0 1-.519.024 4.532 4.532 0 0 1-.515-.024 1.709 1.709 0 0 1-.329-.065.37.37 0 0 1-.174-.105.226.226 0 0 1-.057-.146v-9.915a.226.226 0 0 1 .053-.146.372.372 0 0 1 .178-.105 1.8 1.8 0 0 1 .329-.065 4.422 4.422 0 0 1 .511-.024 4.511 4.511 0 0 1 .519.024 1.7 1.7 0 0 1 .325.065.37.37 0 0 1 .174.105.226.226 0 0 1 .053.146zm7.513-.081a.685.685 0 0 1-.105.223.4.4 0 0 1-.211.13 1.694 1.694 0 0 1-.4.057q-.252.012-.657.012h-.556q-.231 0-.393-.02a1.32 1.32 0 0 1-.264-.049.624.624 0 0 1-.17-.081.336.336 0 0 1-.105-.118 1.018 1.018 0 0 1-.069-.174l-3.124-9.306a2.5 2.5 0 0 1-.118-.462.27.27 0 0 1 .081-.256.625.625 0 0 1 .345-.105q.243-.02.682-.02.373 0 .584.016a1.311 1.311 0 0 1 .325.057.276.276 0 0 1 .158.122 1.238 1.238 0 0 1 .085.2L16.7-4.2h.008l2.507-8.057a.844.844 0 0 1 .081-.223.325.325 0 0 1 .166-.134 1.137 1.137 0 0 1 .337-.065q.219-.016.6-.016a5.283 5.283 0 0 1 .58.024.422.422 0 0 1 .284.118.317.317 0 0 1 .049.264 3.021 3.021 0 0 1-.126.454zm10.823-.462a3.179 3.179 0 0 1-.02.393 1.014 1.014 0 0 1-.061.256.326.326 0 0 1-.1.142.221.221 0 0 1-.134.045h-5.276a.663.663 0 0 1-.45-.158.649.649 0 0 1-.183-.515v-9.152a.649.649 0 0 1 .183-.515.663.663 0 0 1 .45-.158h5.241a.218.218 0 0 1 .13.041.312.312 0 0 1 .1.142 1.082 1.082 0 0 1 .061.26 3.259 3.259 0 0 1 .02.4 3.1 3.1 0 0 1-.02.385 1.014 1.014 0 0 1-.061.256.345.345 0 0 1-.1.142.2.2 0 0 1-.13.045h-3.748v2.564h3.172a.221.221 0 0 1 .134.045.328.328 0 0 1 .1.138.95.95 0 0 1 .061.252 3.1 3.1 0 0 1 .02.385 3.077 3.077 0 0 1-.02.389.942.942 0 0 1-.061.247.3.3 0 0 1-.1.134.236.236 0 0 1-.134.041h-3.172v2.961h3.781a.221.221 0 0 1 .134.045.326.326 0 0 1 .1.142 1.014 1.014 0 0 1 .061.256 3.179 3.179 0 0 1 .021.391z" transform="translate(269.623 221.696)" style="fill:#4690ff"/>
        </g>
    </g>
</svg>
