<svg xmlns="http://www.w3.org/2000/svg" width="30.11" height="35.1" viewBox="0 0 30.11 35.1">
    <g data-name="Group 8181">
        <path data-name="Path 43519" d="M66.322 12.275a14.974 14.974 0 0 0-2.535-3.038l.494-.489.806.8a1.566 1.566 0 0 0 2.2 0 1.531 1.531 0 0 0 0-2.177L64.94 5.047a1.572 1.572 0 0 0-2.2 0 1.536 1.536 0 0 0 0 2.177l.806.8-.546.54a15.063 15.063 0 0 0-2.6-1.672.52.52 0 0 0-.7.223.511.511 0 0 0 .225.69 13.793 13.793 0 0 1 7.627 12.343c-.767 18.377-27.2 18.376-27.969 0-.152-9.194 9.4-16.1 18.19-13.217a.519.519 0 0 0 .65-.335.512.512 0 0 0-.338-.644 15.066 15.066 0 0 0-2.785-.587v-2.08h4.164a1.643 1.643 0 0 0 1.646-1.634v-.018A1.643 1.643 0 0 0 59.461 0h-6.647a.513.513 0 1 0 0 1.026h6.647a.611.611 0 0 1 .613.607v.018a.611.611 0 0 1-.613.607h-11.55a.611.611 0 0 1-.613-.607v-.018a.611.611 0 0 1 .613-.607h2.513a.513.513 0 1 0 0-1.026h-2.513a1.643 1.643 0 0 0-1.649 1.633v.018a1.643 1.643 0 0 0 1.649 1.633h3.94v2.08a14.945 14.945 0 0 0-7.7 3.2l-.551-.542.806-.8a1.536 1.536 0 0 0 0-2.177 1.572 1.572 0 0 0-2.2 0l-2.341 2.324a1.531 1.531 0 0 0 0 2.177 1.566 1.566 0 0 0 2.2 0l.806-.8.494.489a14.846 14.846 0 0 0-.409 21.433 15.192 15.192 0 0 0 21.242 0 14.835 14.835 0 0 0 2.127-18.4zm-3-6.139a.507.507 0 0 1 .152-.363.524.524 0 0 1 .732 0l2.344 2.322a.51.51 0 0 1 0 .726.522.522 0 0 1-.733 0L63.475 6.5a.507.507 0 0 1-.152-.363zM41.33 8.821a.522.522 0 0 1-.732 0 .51.51 0 0 1 0-.726l2.344-2.322a.524.524 0 0 1 .732 0 .512.512 0 0 1 0 .726zm11.557-5.536h1.374v2a14.991 14.991 0 0 0-1.374 0z" transform="translate(-38.531 .05)" style="fill:#8694a8;stroke:#707070;stroke-width:.1px"/>
        <path data-name="Path 43520" d="M81.024 106.993c-10.35-.089-16.632 11.9-10.623 20.283a.518.518 0 0 0 .849-.592c-5.528-7.717.252-18.742 9.774-18.659a11.909 11.909 0 0 1 11.92 11.875c.025 10.39 5.263-12.2-11.92-12.907z" transform="translate(-65.981 -99.786)" style="fill:#8694a8;stroke:#707070;stroke-width:.1px"/>
        <path data-name="Path 43522" d="M192.627 348.179a.608.608 0 0 0-.609.417l-.006.018-.677 2.374-.7-2.379-.006-.018a.6.6 0 0 0-1.168.084l-.689 3.815a.516.516 0 0 0 1.016.183l.368-2.038.609 2.063.006.018a.6.6 0 0 0 .573.412.6.6 0 0 0 .572-.418l.005-.018.588-2.061.391 2.047a.516.516 0 0 0 1.014-.194l-.731-3.822a.6.6 0 0 0-.556-.483z" transform="translate(-178.334 -324.331)" style="fill:#8694a8;stroke:#707070;stroke-width:.1px"/>
        <path data-name="Path 43523" d="M272.512 353.13a1.642 1.642 0 0 0 1.675-1.274 1.5 1.5 0 0 0-1.156-1.654 20.541 20.541 0 0 1-1.062-.429.246.246 0 0 1-.084-.228.368.368 0 0 1 .293-.292 1.277 1.277 0 0 1 1.054.244.516.516 0 0 0 .661-.792 2.311 2.311 0 0 0-2.013-.44 1.334 1.334 0 0 0-.45 2.393.509.509 0 0 0 .072.039c.023.01.563.251 1.171.475.129.048.547.225.5.5-.187.654-1.275.458-1.641.012a.516.516 0 0 0-.765.693 2.353 2.353 0 0 0 1.745.753z" transform="translate(-254.547 -324.332)" style="fill:#8694a8;stroke:#707070;stroke-width:.1px"/>
        <path data-name="Path 43524" d="M182.051 252.228a2.023 2.023 0 0 0-3.365-1.5l-3.455-2.149a.516.516 0 0 0-.545.876l3.433 2.136a2.018 2.018 0 1 0 3.932.638zm-2.018.986a.986.986 0 1 1 .986-.986.987.987 0 0 1-.986.986z" transform="translate(-164.998 -231.468)" style="fill:#8694a8;stroke:#707070;stroke-width:.1px"/>
    </g>
</svg>
