<svg xmlns="http://www.w3.org/2000/svg" width="16" height="16" viewBox="0 0 16 16">
    <g data-name="Group 48040">
        <path data-name="Path 53219" d="M9.142 89.61a1.414 1.414 0 0 1-.55.34l-1.992.663a1.4 1.4 0 0 1-.445.072 1.406 1.406 0 0 1-1.334-1.851l.663-1.989a1.413 1.413 0 0 1 .34-.55l4.3-4.3h-8.4A1.721 1.721 0 0 0 0 83.719v10a1.721 1.721 0 0 0 1.719 1.719h10a1.721 1.721 0 0 0 1.719-1.719v-8.4z" transform="translate(0 -79.437)" style="fill:#fff"/>
    </g>
    <path data-name="Path 53220" d="M182.886 59.141a.469.469 0 0 0-.113.183l-.663 1.989a.469.469 0 0 0 .593.593l1.989-.663a.468.468 0 0 0 .183-.113l5.856-5.856-1.989-1.989z" transform="translate(-176.395 -51.62)" style="fill:#fff"/>
    <path data-name="Path 53221" d="M418.167.229a.781.781 0 0 0-1.1 0l-.778.771 1.989 1.989.773-.773a.781.781 0 0 0 0-1.1z" transform="translate(-403.28)" style="fill:#fff"/>
</svg>
