<svg xmlns="http://www.w3.org/2000/svg" width="22.572" height="19.343" viewBox="0 0 22.572 19.343">
    <path data-name="Icon ionic-md-eye-off" d="M13.538 8.57a5.117 5.117 0 0 1 5.133 5.093 4.9 4.9 0 0 1-.368 1.864l3 2.972a12.042 12.042 0 0 0 3.521-4.836A12.156 12.156 0 0 0 9.443 6.736l2.216 2.2a5.075 5.075 0 0 1 1.879-.366zM3.278 5.795 5.62 8.117l.473.468a11.984 11.984 0 0 0-3.843 5.078 12.173 12.173 0 0 0 15.781 6.78l.433.428 3.007 2.972 1.3-1.295L4.577 4.5zm5.672 5.627L10.541 13a2.885 2.885 0 0 0-.081.66 3.062 3.062 0 0 0 3.078 3.053 2.9 2.9 0 0 0 .665-.081l1.592 1.577a5.106 5.106 0 0 1-7.39-4.554 5.032 5.032 0 0 1 .544-2.234zm4.423-.791 3.234 3.209.02-.161a3.062 3.062 0 0 0-3.078-3.053z" transform="translate(-2.25 -4.5)" style="fill:#94a6bf"/>
</svg>
