<svg xmlns="http://www.w3.org/2000/svg" width="40.479" height="40.479" viewBox="0 0 40.479 40.479">
    <path data-name="Union 3" d="M1369.5-4463.262v-2.407a17.026 17.026 0 0 1-11.35-5 17.034 17.034 0 0 1-5-11.35h-2.406a.744.744 0 0 1-.742-.742.744.744 0 0 1 .742-.742h2.406a17.033 17.033 0 0 1 5-11.349 17.032 17.032 0 0 1 11.35-5v-2.407a.742.742 0 0 1 .741-.741.742.742 0 0 1 .741.741v2.407a17.032 17.032 0 0 1 11.35 5 17.033 17.033 0 0 1 5 11.349h2.406a.743.743 0 0 1 .741.742.743.743 0 0 1-.741.742h-2.406a17.034 17.034 0 0 1-5 11.35 17.026 17.026 0 0 1-11.35 5v2.407a.742.742 0 0 1-.741.741.742.742 0 0 1-.741-.741zm1.483-4.415v.523a15.643 15.643 0 0 0 14.865-14.865h-1.55a.743.743 0 0 1-.741-.742.743.743 0 0 1 .741-.742h1.55a15.642 15.642 0 0 0-14.865-14.864v.549a.742.742 0 0 1-.741.741.742.742 0 0 1-.741-.741v-.549a15.641 15.641 0 0 0-14.865 14.864h1.526a.743.743 0 0 1 .741.742.743.743 0 0 1-.741.742h-1.526a15.642 15.642 0 0 0 14.865 14.865v-.523a.743.743 0 0 1 .741-.741.743.743 0 0 1 .739.741zm-10.1-5.431a13.315 13.315 0 0 1-3.346-5.244 3.215 3.215 0 0 1 .2-2.6 3.217 3.217 0 0 1 1.476-1.368 6.979 6.979 0 0 1 3.23-.64h.1a6.965 6.965 0 0 1 3.225.64 3.276 3.276 0 0 1 1.328 1.122.738.738 0 0 1 .111.556.733.733 0 0 1-.315.472.732.732 0 0 1-.411.125.742.742 0 0 1-.617-.329 1.788 1.788 0 0 0-.756-.619 5.589 5.589 0 0 0-2.568-.485h-.09a5.591 5.591 0 0 0-2.571.485 1.742 1.742 0 0 0-.839.752 1.739 1.739 0 0 0-.1 1.4 11.836 11.836 0 0 0 2.978 4.665 11.9 11.9 0 0 0 8.331 3.369 11.911 11.911 0 0 0 8.021-3.088 12.02 12.02 0 0 0 3.271-4.931 1.742 1.742 0 0 0-.154-1.5 1.8 1.8 0 0 0-.794-.666 5.58 5.58 0 0 0-2.566-.485h-.089a5.6 5.6 0 0 0-2.573.485 1.788 1.788 0 0 0-.756.619.742.742 0 0 1-.617.329.732.732 0 0 1-.411-.125.733.733 0 0 1-.315-.472.738.738 0 0 1 .111-.556 3.277 3.277 0 0 1 1.328-1.122 6.974 6.974 0 0 1 3.229-.64h.1a6.958 6.958 0 0 1 3.224.64 3.292 3.292 0 0 1 1.384 1.2 3.237 3.237 0 0 1 .3 2.782 13.508 13.508 0 0 1-3.675 5.543 13.385 13.385 0 0 1-9.018 3.473 13.373 13.373 0 0 1-9.368-3.787zm9.362 3.537zm3.839-4.45a17.2 17.2 0 0 0-.118-2.321 1.945 1.945 0 0 0-1.14-1.755 5.57 5.57 0 0 0-2.568-.485h-.093a5.578 5.578 0 0 0-2.569.485 1.937 1.937 0 0 0-1.137 1.744 17.193 17.193 0 0 0-.12 2.333.743.743 0 0 1-.741.743.743.743 0 0 1-.741-.743 18.126 18.126 0 0 1 .136-2.553 3.375 3.375 0 0 1 1.943-2.852 6.961 6.961 0 0 1 3.229-.641h.095a6.953 6.953 0 0 1 3.228.641 3.382 3.382 0 0 1 1.946 2.863 17.958 17.958 0 0 1 .133 2.542.743.743 0 0 1-.741.743.743.743 0 0 1-.742-.744zm-3.855-7.173a3.121 3.121 0 0 1-2.218-.928 3.119 3.119 0 0 1-.912-2.223 3.146 3.146 0 0 1 3.141-3.129 3.149 3.149 0 0 1 3.139 3.151 3.145 3.145 0 0 1-3.139 3.129zm-1.647-3.146a1.64 1.64 0 0 0 .481 1.173 1.639 1.639 0 0 0 1.17.489h.006a1.66 1.66 0 0 0 1.657-1.651 1.642 1.642 0 0 0-.483-1.172 1.648 1.648 0 0 0-1.169-.491 1.664 1.664 0 0 0-1.661 1.652zm9.409.255a3.116 3.116 0 0 1-2.218-.927 3.122 3.122 0 0 1-.912-2.223 3.146 3.146 0 0 1 3.141-3.129 3.125 3.125 0 0 1 2.227.927 3.117 3.117 0 0 1 .912 2.224 3.145 3.145 0 0 1-3.139 3.128zm-1.647-3.145a1.638 1.638 0 0 0 .48 1.173 1.643 1.643 0 0 0 1.171.489h.017a1.661 1.661 0 0 0 1.646-1.651 1.648 1.648 0 0 0-.481-1.173 1.649 1.649 0 0 0-1.17-.49 1.662 1.662 0 0 0-1.661 1.653zm-13.886 3.145a3.145 3.145 0 0 1-3.139-3.128 3.115 3.115 0 0 1 .913-2.223 3.114 3.114 0 0 1 2.216-.928 3.151 3.151 0 0 1 3.151 3.129 3.122 3.122 0 0 1-.912 2.223 3.115 3.115 0 0 1-2.217.927zm-1.175-4.307a1.648 1.648 0 0 0-.481 1.173 1.661 1.661 0 0 0 1.646 1.651h.017a1.645 1.645 0 0 0 1.171-.489 1.643 1.643 0 0 0 .48-1.173 1.659 1.659 0 0 0-1.656-1.651 1.657 1.657 0 0 0-1.175.49zm15.1-4.392a11.954 11.954 0 0 0-6.143-1.7 11.954 11.954 0 0 0-6.143 1.7.743.743 0 0 1-.381.106.747.747 0 0 1-.636-.361.742.742 0 0 1 .255-1.018 13.441 13.441 0 0 1 6.9-1.914 13.435 13.435 0 0 1 6.906 1.916.742.742 0 0 1 .254 1.017.746.746 0 0 1-.636.36.736.736 0 0 1-.376-.105z" transform="translate(-1350 4503)" style="fill:#8994a6"/>
</svg>
