<svg xmlns="http://www.w3.org/2000/svg" width="14" height="14" viewBox="0 0 14 14">
    <path d="M161.413-786a1.369 1.369 0 0 1-1.009-.4 1.369 1.369 0 0 1-.4-1.009v-11.173a1.369 1.369 0 0 1 .4-1.009 1.369 1.369 0 0 1 1.009-.4h9a1.37 1.37 0 0 1 .553.114 1.451 1.451 0 0 1 .453.3l2.157 2.157a1.454 1.454 0 0 1 .3.453 1.372 1.372 0 0 1 .114.553v9a1.369 1.369 0 0 1-.4 1.009 1.369 1.369 0 0 1-1.009.4zm5.587-3.029a1.7 1.7 0 0 0 1.241-.509 1.677 1.677 0 0 0 .513-1.237 1.7 1.7 0 0 0-.509-1.241 1.677 1.677 0 0 0-1.237-.513 1.7 1.7 0 0 0-1.241.509 1.677 1.677 0 0 0-.513 1.237 1.7 1.7 0 0 0 .509 1.241 1.677 1.677 0 0 0 1.237.513zm-3.866-5.923h5.078a.687.687 0 0 0 .509-.2.688.688 0 0 0 .2-.5v-1.211a.684.684 0 0 0-.2-.5.684.684 0 0 0-.5-.2h-5.078a.687.687 0 0 0-.509.2.688.688 0 0 0-.2.5v1.211a.684.684 0 0 0 .2.5.684.684 0 0 0 .496.2z" transform="translate(-160 800)" style="fill:#fff"/>
</svg>
