<svg xmlns="http://www.w3.org/2000/svg" width="24.341" height="18" viewBox="0 0 24.341 18">
    <path data-name="Union 1" d="M-1485.872 61a.874.874 0 0 1-.874-.874l-.006-6.574-1.426 1.943a.873.873 0 0 1-.706.357.869.869 0 0 1-.516-.169.874.874 0 0 1-.188-1.222l2.158-2.942a1.9 1.9 0 0 1 1.536-.784h.012a1.9 1.9 0 0 1 1.534.765l2.214 2.941a.874.874 0 0 1-.172 1.224.873.873 0 0 1-1.224-.173l-1.47-1.957.005 6.59a.874.874 0 0 1-.873.875zm2.462-2.454a.874.874 0 0 1-.874-.874.874.874 0 0 1 .874-.874h6.278a3.73 3.73 0 0 0 3.725-3.725 3.73 3.73 0 0 0-3.725-3.726h-4.163a.873.873 0 0 1-.874-.86 3.733 3.733 0 0 0-3.725-3.739 3.732 3.732 0 0 0-3.726 3.726.872.872 0 0 1-.872.873h-.026a3.733 3.733 0 0 0-3.733 3.726 3.732 3.732 0 0 0 3.726 3.725h2.105a.874.874 0 0 1 .874.874.874.874 0 0 1-.874.874h-2.106a5.483 5.483 0 0 1-5.474-5.474 5.4 5.4 0 0 1 1.6-3.857 5.539 5.539 0 0 1 3.087-1.553 5.485 5.485 0 0 1 5.418-4.662 5.4 5.4 0 0 1 3.857 1.6 5.536 5.536 0 0 1 1.538 3h3.368a5.48 5.48 0 0 1 5.474 5.474 5.48 5.48 0 0 1-5.474 5.473z" transform="translate(1496 -42.999)" style="fill:#fff"/>
</svg>
