<svg xmlns="http://www.w3.org/2000/svg" width="37.2" height="37.2" viewBox="0 0 37.2 37.2">
    <g data-name="Group 48195">
        <path data-name="Rectangle 1698" d="M4.485 1.121a3.367 3.367 0 0 0-3.364 3.364v22.424a3.367 3.367 0 0 0 3.364 3.364h22.424a3.367 3.367 0 0 0 3.364-3.364V4.485a3.367 3.367 0 0 0-3.364-3.364H4.485m0-1.121h22.424a4.485 4.485 0 0 1 4.485 4.485v22.424a4.485 4.485 0 0 1-4.485 4.485H4.485A4.485 4.485 0 0 1 0 26.909V4.485A4.485 4.485 0 0 1 4.485 0z" transform="translate(2.903 2.903)" style="fill:#8994a6;stroke:#8994a6;stroke-width:.2px"/>
        <path data-name="Ellipse 90" d="M3.364 1.121a2.242 2.242 0 1 0 2.242 2.243 2.245 2.245 0 0 0-2.242-2.243m0-1.121A3.364 3.364 0 1 1 0 3.364 3.364 3.364 0 0 1 3.364 0z" transform="translate(15.236 15.236)" style="fill:#8994a6;stroke:#8994a6;stroke-width:.2px"/>
        <path data-name="Ellipse 91" d="M2.242 1.121a1.121 1.121 0 1 0 1.122 1.121 1.122 1.122 0 0 0-1.122-1.121m0-1.121A2.242 2.242 0 1 1 0 2.242 2.242 2.242 0 0 1 2.242 0z" transform="translate(24.206 8.509)" style="fill:#8994a6;stroke:#8994a6;stroke-width:.2px"/>
        <path data-name="Ellipse 92" d="M2.242 1.121a1.121 1.121 0 1 0 1.122 1.121 1.122 1.122 0 0 0-1.122-1.121m0-1.121A2.242 2.242 0 1 1 0 2.242 2.242 2.242 0 0 1 2.242 0z" transform="translate(24.206 24.206)" style="fill:#8994a6;stroke:#8994a6;stroke-width:.2px"/>
        <path data-name="Ellipse 93" d="M2.242 1.121a1.121 1.121 0 1 0 1.122 1.121 1.122 1.122 0 0 0-1.122-1.121m0-1.121A2.242 2.242 0 1 1 0 2.242 2.242 2.242 0 0 1 2.242 0z" transform="translate(8.509 24.206)" style="fill:#8994a6;stroke:#8994a6;stroke-width:.2px"/>
        <path data-name="Ellipse 94" d="M2.242 1.121a1.121 1.121 0 1 0 1.122 1.121 1.122 1.122 0 0 0-1.122-1.121m0-1.121A2.242 2.242 0 1 1 0 2.242 2.242 2.242 0 0 1 2.242 0z" transform="translate(8.509 8.509)" style="fill:#8994a6;stroke:#8994a6;stroke-width:.2px"/>
        <path data-name="Rectangle 1699" d="M2.242 1.121a1.122 1.122 0 0 0-1.121 1.121v8.2a1.122 1.122 0 0 0 1.121 1.121h8.2a1.122 1.122 0 0 0 1.121-1.121v-8.2a1.122 1.122 0 0 0-1.121-1.121h-8.2m0-1.121h8.2a2.242 2.242 0 0 1 2.242 2.242v8.2a2.242 2.242 0 0 1-2.242 2.242h-8.2A2.242 2.242 0 0 1 0 10.443v-8.2A2.242 2.242 0 0 1 2.242 0z" transform="rotate(45 -2.324 27.267)" style="fill:#8994a6;stroke:#8994a6;stroke-width:.2px"/>
        <path data-name="Line 138" d="M8.159 8.688c-.144 0-.24.111-.35 0L-.338.455a.561.561 0 0 1 .8-.789L8.606 7.9c.218.22.018.324-.2.542-.111.107-.106.246-.247.246z" transform="translate(1.423 1.337)" style="fill:#8994a6;stroke:#8994a6;stroke-width:.2px"/>
        <path data-name="Path 43661" d="M-505.173 5204.125a.56.56 0 0 1-.561-.561v-5.222h5.307a.561.561 0 0 1 .561.561.56.56 0 0 1-.561.561h-4.186v4.1a.56.56 0 0 1-.56.561z" transform="translate(505.834 -5198.243)" style="fill:#8994a6;stroke:#8994a6;stroke-width:.2px"/>
        <path data-name="Line 138" d="M.05 8.854c-.142 0 .109-.324 0-.432-.22-.218-.616-.3-.4-.523L7.8-.334a.561.561 0 0 1 .8.789L.448 8.688a.559.559 0 0 1-.398.166z" transform="translate(27.52 1.337)" style="fill:#8994a6;stroke:#8994a6;stroke-width:.2px"/>
        <path data-name="Path 43661" d="M-500.426 5204.125a.56.56 0 0 1-.561-.561v-4.1h-4.186a.56.56 0 0 1-.561-.561.561.561 0 0 1 .561-.561h5.307v5.222a.56.56 0 0 1-.56.561z" transform="translate(536.966 -5198.243)" style="fill:#8994a6;stroke:#8994a6;stroke-width:.2px"/>
        <path data-name="Line 138" d="M.061 8.845a.559.559 0 0 1-.394-.162.561.561 0 0 1 0-.793L7.809-.343c.218-.22.362.046.582.263s.433.305.215.525L.459 8.679a.559.559 0 0 1-.398.166z" transform="translate(1.423 27.518)" style="fill:#8994a6;stroke:#8994a6;stroke-width:.2px"/>
        <path data-name="Path 43661" d="M-500.426 5204.125h-5.307v-5.225a.561.561 0 0 1 .561-.561.561.561 0 0 1 .561.561v4.1h4.186a.561.561 0 0 1 .561.561.56.56 0 0 1-.562.564z" transform="translate(505.834 -5167.026)" style="fill:#8994a6;stroke:#8994a6;stroke-width:.2px"/>
        <path data-name="Line 138" d="M8.2 8.844a.559.559 0 0 1-.4-.166L-.345.445C-.563.225-.371.207-.151-.01s.385-.554.6-.334L8.6 7.889a.561.561 0 0 1-.4.955z" transform="translate(27.516 27.519)" style="fill:#8994a6;stroke:#8994a6;stroke-width:.2px"/>
        <path data-name="Path 43661" d="M-499.866 5204.125h-5.307a.56.56 0 0 1-.561-.561.561.561 0 0 1 .561-.561h4.186v-4.1a.561.561 0 0 1 .561-.561.561.561 0 0 1 .561.561z" transform="translate(536.966 -5167.026)" style="fill:#8994a6;stroke:#8994a6;stroke-width:.2px"/>
    </g>
</svg>
