<svg xmlns="http://www.w3.org/2000/svg" width="39.966" height="40" viewBox="0 0 39.966 40">
    <path data-name="Path 43536" d="M23.667 24h-20A1.667 1.667 0 0 0 2 25.667v5a1.667 1.667 0 0 0 1.667 1.667V34A1.667 1.667 0 0 0 2 35.667v5a1.667 1.667 0 0 0 1.667 1.667h20a1.667 1.667 0 0 0 1.667-1.667v-5A1.667 1.667 0 0 0 23.667 34v-1.667a1.667 1.667 0 0 0 1.667-1.667v-5A1.667 1.667 0 0 0 23.667 24zm0 16.667h-20v-5h20zM5.333 34v-1.667H22V34zm-1.666-3.333v-5h20v5z" transform="translate(-.367 -4)" style="fill:#8994a4"/>
    <path data-name="Path 43537" d="M8.5 28H6.833a.833.833 0 0 0 0 1.667H8.5A.833.833 0 0 0 8.5 28z" transform="translate(-1.034 -4.666)" style="fill:#8994a4"/>
    <path data-name="Path 43538" d="M8.5 40H6.833a.833.833 0 1 0 0 1.667H8.5A.833.833 0 1 0 8.5 40z" transform="translate(-1.034 -6.666)" style="fill:#8994a4"/>
    <path data-name="Path 43539" d="M24.833 28a.833.833 0 1 0 .833.833.833.833 0 0 0-.833-.833z" transform="translate(-4.034 -4.666)" style="fill:#8994a4"/>
    <path data-name="Path 43540" d="M24.833 40a.833.833 0 1 0 .833.833.833.833 0 0 0-.833-.833z" transform="translate(-4.034 -6.666)" style="fill:#8994a4"/>
    <path data-name="Path 43541" d="M1.674 17.509a.833.833 0 0 0 .833.833H5.84a.833.833 0 0 0 .833-.833V5.843c.558 0 1.292.142 1.583-.475s.15-.567-3.433-5a.833.833 0 0 0-1.3 0L.19 4.534a.833.833 0 0 0 .65 1.309h.833zm2.5-15.333 1.6 2a.833.833 0 0 0-.767.833v11.667H3.34V5.009a.833.833 0 0 0-.767-.833z" transform="translate(-.041 -.009)" style="fill:#8994a4"/>
    <path data-name="Path 43542" d="M40.858 38.183a.833.833 0 0 0-1.358.65v.833h-6.667A.833.833 0 0 0 32 40.5v3.333a.833.833 0 0 0 .833.833H39.5c0 .575-.142 1.292.475 1.583a.833.833 0 0 0 .883-.1c4.525-3.625 4.475-3.442 4.475-3.983s.1-.317-4.475-3.983zm.308 5.583a.833.833 0 0 0-.833-.766h-6.666v-1.667h6.667a.833.833 0 0 0 .833-.767l2 1.6z" transform="translate(-5.367 -6.332)" style="fill:#8994a4"/>
    <path data-name="Path 43543" d="M10.833 11a.833.833 0 0 0 0 1.667H12.5a.833.833 0 0 0 0-1.667z" transform="translate(-1.701 -1.833)" style="fill:#8994a4"/>
    <path data-name="Path 43544" d="M16.833 11a.833.833 0 0 0 0 1.667H18.5a.833.833 0 0 0 0-1.667z" transform="translate(-2.701 -1.833)" style="fill:#8994a4"/>
    <path data-name="Path 43545" d="M22.833 11a.833.833 0 1 0 0 1.667H24.5a.833.833 0 0 0 0-1.667z" transform="translate(-3.701 -1.833)" style="fill:#8994a4"/>
    <path data-name="Path 43546" d="M30.5 11h-1.667a.833.833 0 1 0 0 1.667H30.5a.833.833 0 0 0 0-1.667z" transform="translate(-4.701 -1.833)" style="fill:#8994a4"/>
    <path data-name="Path 43547" d="M35 34.833V36.5a.833.833 0 0 0 1.667 0v-1.667a.833.833 0 1 0-1.667 0z" transform="translate(-5.867 -5.666)" style="fill:#8994a4"/>
    <path data-name="Path 43548" d="M36.667 28.833a.833.833 0 0 0-1.667 0V30.5a.833.833 0 0 0 1.667 0z" transform="translate(-5.867 -4.666)" style="fill:#8994a4"/>
    <path data-name="Path 43549" d="M36.667 22.833a.833.833 0 0 0-1.667 0V24.5a.833.833 0 0 0 1.667 0z" transform="translate(-5.867 -3.666)" style="fill:#8994a4"/>
    <path data-name="Path 43550" d="M36.667 16.833a.833.833 0 0 0-1.667 0V18.5a.833.833 0 0 0 1.667 0z" transform="translate(-5.867 -2.667)" style="fill:#8994a4"/>
    <path data-name="Path 43551" d="M36.5 11.833a.833.833 0 0 0-.833-.833h-.833a.833.833 0 1 0 0 1.667.833.833 0 1 0 1.667 0z" transform="translate(-5.701 -1.833)" style="fill:#8994a4"/>
    <path data-name="Path 43552" d="M21.833 1.667H23.5A.833.833 0 0 0 23.5 0h-1.667a.833.833 0 0 0 0 1.667z" transform="translate(-3.534)" style="fill:#8994a4"/>
    <path data-name="Path 43553" d="M27.833 1.667H29.5A.833.833 0 0 0 29.5 0h-1.667a.833.833 0 0 0 0 1.667z" transform="translate(-4.534)" style="fill:#8994a4"/>
    <path data-name="Path 43554" d="M33.833 1.667H35.5A.833.833 0 1 0 35.5 0h-1.667a.833.833 0 1 0 0 1.667z" transform="translate(-5.534)" style="fill:#8994a4"/>
    <path data-name="Path 43555" d="M39.833 1.667H41.5A.833.833 0 1 0 41.5 0h-1.667a.833.833 0 0 0 0 1.667z" transform="translate(-6.534)" style="fill:#8994a4"/>
    <path data-name="Path 43556" d="M46 23.833V25.5a.833.833 0 1 0 1.667 0v-1.667a.833.833 0 1 0-1.667 0z" transform="translate(-7.7 -3.833)" style="fill:#8994a4"/>
    <path data-name="Path 43557" d="M46 17.833V19.5a.833.833 0 0 0 1.667 0v-1.667a.833.833 0 1 0-1.667 0z" transform="translate(-7.7 -2.833)" style="fill:#8994a4"/>
    <path data-name="Path 43558" d="M46 11.833V13.5a.833.833 0 1 0 1.667 0v-1.667a.833.833 0 1 0-1.667 0z" transform="translate(-7.7 -1.833)" style="fill:#8994a4"/>
    <path data-name="Path 43559" d="M46 5.833V7.5a.833.833 0 1 0 1.667 0V5.833a.833.833 0 1 0-1.667 0z" transform="translate(-7.7 -.833)" style="fill:#8994a4"/>
    <path data-name="Path 43560" d="M46.667 0h-.833a.833.833 0 1 0 0 1.667.833.833 0 1 0 1.667 0V.833A.833.833 0 0 0 46.667 0z" transform="translate(-7.534)" style="fill:#8994a4"/>
    <path data-name="Path 43561" d="M46 29.833V31.5a.833.833 0 0 0 1.667 0v-1.667a.833.833 0 1 0-1.667 0z" transform="translate(-7.7 -4.833)" style="fill:#8994a4"/>
    <path data-name="Path 43562" d="M46 35.833V37.5a.833.833 0 1 0 1.667 0v-1.667a.833.833 0 1 0-1.667 0z" transform="translate(-7.7 -5.833)" style="fill:#8994a4"/>
    <path data-name="Path 43563" d="M15.833 1.667H17.5A.833.833 0 0 0 17.5 0h-1.667a.833.833 0 0 0 0 1.667z" transform="translate(-2.534)" style="fill:#8994a4"/>
    <path data-name="Path 43564" d="M9.833 1.667H11.5A.833.833 0 0 0 11.5 0H9.833a.833.833 0 0 0 0 1.667z" transform="translate(-1.534)" style="fill:#8994a4"/>
</svg>
