<svg xmlns="http://www.w3.org/2000/svg" width="32" height="35" viewBox="0 0 32 35">
    <defs>
        <clipPath id="igh26cs3da">
            <path data-name="Rectangle 1493" style="fill:#8994a6" d="M0 0h32v35H0z"/>
        </clipPath>
    </defs>
    <g data-name="Group 47420" style="clip-path:url(#igh26cs3da)">
        <path data-name="Path 43576" d="M16.006 35a.7.7 0 0 1-.217-.037C13.15 34.092 0 29.069 0 15.625v-9.9a.7.7 0 0 1 .56-.68A50.24 50.24 0 0 0 15.677.08a.83.83 0 0 1 .356-.08.818.818 0 0 1 .335.071 48.973 48.973 0 0 0 15.1 4.977.69.69 0 0 1 .532.674v9.9C32 29.1 18.852 34.1 16.216 34.963a.674.674 0 0 1-.21.037m-.235-33.417A49.607 49.607 0 0 1 1.877 6.194l-.477.083v9.349c0 11.853 11.031 16.685 14.411 17.883l.194.069.194-.069c3.381-1.2 14.411-6.029 14.411-17.883v-9.35l-.476-.083A48.988 48.988 0 0 1 16.3 1.584l-.262-.134z" style="fill:#8994a6"/>
        <g data-name="Group 47443">
            <g data-name="Group 47423">
                <path data-name="Path 43578" d="M160.428 138.643h-3.615v-4.338a.724.724 0 0 0-1.358-.346l-4.338 7.953a.723.723 0 0 0 .635 1.069h3.615v4.338a.723.723 0 0 0 1.358.346l4.338-7.953a.723.723 0 0 0-.635-1.069zm-3.615 5.84v-2.226a.723.723 0 0 0-.723-.723h-3.12l2.4-4.394v2.226a.723.723 0 0 0 .723.723h3.12z" transform="translate(-139.61 -122.813)" style="fill:#8994a6"/>
            </g>
        </g>
    </g>
</svg>
