<svg xmlns="http://www.w3.org/2000/svg" width="32.013" height="29.231" viewBox="0 0 32.013 29.231">
    <path data-name="Union 4" d="M1352.65-4473.768a2.644 2.644 0 0 1-2.65-2.632v-23.974a2.643 2.643 0 0 1 2.651-2.629h26.712a2.643 2.643 0 0 1 2.65 2.629v23.974a2.644 2.644 0 0 1-2.65 2.629zm-1.3-26.6v23.974a1.3 1.3 0 0 0 1.3 1.293h26.712a1.3 1.3 0 0 0 1.3-1.293v-23.974a1.3 1.3 0 0 0-1.3-1.294h-26.712a1.3 1.3 0 0 0-1.305 1.291zm16.433 21.848h-12.443a.673.673 0 0 1-.672-.669.671.671 0 0 1 .672-.668h12.443a2.451 2.451 0 0 1 2.352-1.756 2.438 2.438 0 0 1 2.445 2.424 2.437 2.437 0 0 1-2.445 2.425 2.454 2.454 0 0 1-2.357-1.758zm1.252-.669a1.1 1.1 0 0 0 1.1 1.091 1.1 1.1 0 0 0 1.1-1.091 1.1 1.1 0 0 0-1.1-1.089 1.1 1.1 0 0 0-1.104 1.086zm5.2.669a.673.673 0 0 1-.672-.669.671.671 0 0 1 .672-.668h3.08a.672.672 0 0 1 .674.668.674.674 0 0 1-.674.669zm-12.257-7.152v-9.125a1.337 1.337 0 0 1 .419-.98 1.39 1.39 0 0 1 .952-.381 1.377 1.377 0 0 1 .68.181l8.024 4.562a1.347 1.347 0 0 1 .69 1.18 1.345 1.345 0 0 1-.689 1.18l-8.025 4.563a1.377 1.377 0 0 1-.68.181 1.367 1.367 0 0 1-1.375-1.363zm1.352-9.144a.022.022 0 0 0-.007.018v9.125c0 .022.026.024.026.024h.011l8.024-4.562a.025.025 0 0 0 .013-.023c0-.014-.006-.017-.013-.022l-8.024-4.562c-.005 0-.009 0-.011-.006a.169.169 0 0 0-.023.006zm11.293-.557v-4.616h1.665a2.49 2.49 0 0 1 1.209.274 1.9 1.9 0 0 1 .781.793 2.611 2.611 0 0 1 .273 1.235 2.617 2.617 0 0 1-.273 1.239 1.9 1.9 0 0 1-.784.8 2.525 2.525 0 0 1-1.219.277zm.985-.837h.625a1.6 1.6 0 0 0 .734-.154.984.984 0 0 0 .45-.479 2 2 0 0 0 .151-.843 1.966 1.966 0 0 0-.151-.834.979.979 0 0 0-.448-.481 1.627 1.627 0 0 0-.735-.151h-.627zm-2.6.837-.345-1.054h-1.68l-.345 1.054h-1.055l1.607-4.616h1.269l1.6 4.616zm-1.775-1.815h1.181l-.572-1.747h-.037z" transform="translate(-1350 4503)" style="fill:#8994a6"/>
</svg>
