<svg width="21" height="20" viewBox="0 0 21 20" fill="none" xmlns="http://www.w3.org/2000/svg">
<path d="M8.21388 20L7.81587 16.8C7.60028 16.7167 7.39713 16.6167 7.20641 16.5C7.0157 16.3833 6.82913 16.2583 6.64671 16.125L3.68651 17.375L0.950195 12.625L3.51238 10.675C3.4958 10.5583 3.48751 10.4458 3.48751 10.3375V9.6625C3.48751 9.55417 3.4958 9.44167 3.51238 9.325L0.950195 7.375L3.68651 2.625L6.64671 3.875C6.82913 3.74167 7.01985 3.61667 7.21885 3.5C7.41786 3.38333 7.61686 3.28333 7.81587 3.2L8.21388 0H13.6865L14.0845 3.2C14.3001 3.28333 14.5033 3.38333 14.694 3.5C14.8847 3.61667 15.0713 3.74167 15.2537 3.875L18.2139 2.625L20.9502 7.375L18.388 9.325C18.4046 9.44167 18.4129 9.55417 18.4129 9.6625V10.3375C18.4129 10.4458 18.3963 10.5583 18.3631 10.675L20.9253 12.625L18.189 17.375L15.2537 16.125C15.0713 16.2583 14.8805 16.3833 14.6815 16.5C14.4825 16.6167 14.2835 16.7167 14.0845 16.8L13.6865 20H8.21388ZM10.9999 13.5C11.9618 13.5 12.7827 13.1583 13.4626 12.475C14.1426 11.7917 14.4825 10.9667 14.4825 10C14.4825 9.03333 14.1426 8.20833 13.4626 7.525C12.7827 6.84167 11.9618 6.5 10.9999 6.5C10.0215 6.5 9.19646 6.84167 8.52482 7.525C7.85318 8.20833 7.51736 9.03333 7.51736 10C7.51736 10.9667 7.85318 11.7917 8.52482 12.475C9.19646 13.1583 10.0215 13.5 10.9999 13.5Z" fill="#8798AC"/>
</svg>
