<svg data-name="Group 1817" xmlns="http://www.w3.org/2000/svg" width="10" height="16" viewBox="0 0 10 16">
    <path data-name="Icon awesome-chevron-down" d="m5.009 14.524-4.45-4.4a.539.539 0 0 1 0-.768l.519-.513a.554.554 0 0 1 .776 0L5.4 12.329l3.541-3.488a.554.554 0 0 1 .776 0l.519.513a.539.539 0 0 1 0 .768l-4.45 4.4a.554.554 0 0 1-.777.002z" transform="translate(-.398 1.317)" style="fill:#637381"/>
    <path data-name="Icon awesome-chevron-down" d="m5.009 8.842-4.45 4.4a.539.539 0 0 0 0 .768l.519.513a.554.554 0 0 0 .776 0L5.4 11.038l3.544 3.487a.554.554 0 0 0 .776 0l.519-.513a.539.539 0 0 0 0-.768l-4.45-4.4a.554.554 0 0 0-.78-.002z" transform="translate(-.398 -8.683)" style="fill:#637381"/>
</svg>
