<svg xmlns="http://www.w3.org/2000/svg" width="40.731" height="35.5" viewBox="0 0 40.731 35.5">
    <g data-name="Group 47419">
        <path data-name="Path 43565" d="M2.1 62.806h13.1v2.566h-1.965a2.5 2.5 0 0 0-2.274 1.468 1.011 1.011 0 0 0 .076.967 1.037 1.037 0 0 0 .873.477h16.41a1.036 1.036 0 0 0 .873-.476 1.01 1.01 0 0 0 .076-.966 2.5 2.5 0 0 0-2.275-1.47h-1.961v-2.566h13.1a2.1 2.1 0 0 0 2.1-2.1V35.375a2.1 2.1 0 0 0-2.1-2.1H2.1a2.1 2.1 0 0 0-2.1 2.1V60.71a2.1 2.1 0 0 0 2.1 2.1zm24.9 3.4a1.657 1.657 0 0 1 1.511.975.173.173 0 0 1-.016.168.2.2 0 0 1-.169.093H11.91a.2.2 0 0 1-.169-.094.172.172 0 0 1-.016-.168 1.659 1.659 0 0 1 1.51-.975zm-10.956-.839v-2.533h8.157v2.537zM.839 35.38A1.259 1.259 0 0 1 2.1 34.122h36.035a1.259 1.259 0 0 1 1.257 1.257v20.74H.839zm0 21.58h38.554v3.751a1.259 1.259 0 0 1-1.257 1.257H2.1a1.259 1.259 0 0 1-1.262-1.257v-3.752z" transform="translate(.25 -33.034)" style="fill:#8994a4;stroke:#8994a4;stroke-width:.5px"/>
        <path data-name="Path 43566" d="M239.426 351.3a1.413 1.413 0 1 0-1.413-1.414 1.415 1.415 0 0 0 1.413 1.414zm0-1.989a.575.575 0 1 1-.575.575.576.576 0 0 1 .575-.575z" transform="translate(-219.061 -323.457)" style="fill:#8994a4;stroke:#8994a4;stroke-width:.5px"/>
        <path data-name="Path 43567" d="M58.1 75.955h-.016a4.743 4.743 0 1 0 4.744 4.745 4.746 4.746 0 0 0-4.728-4.745zm.4.86a3.911 3.911 0 0 1 3.462 3.461h-3.456zm-.415 7.785a3.905 3.905 0 0 1-.419-7.788V80.7a.42.42 0 0 0 .421.42h3.881a3.911 3.911 0 0 1-3.883 3.48z" transform="translate(-48.901 -72.349)" style="fill:#8994a4;stroke:#8994a4;stroke-width:.5px"/>
        <path data-name="Path 43568" d="M62.408 218.407H53.76a.419.419 0 0 0 0 .838h8.648a.419.419 0 0 0 0-.838z" transform="translate(-48.9 -203.611)" style="fill:#8994a4;stroke:#8994a4;stroke-width:.5px"/>
        <path data-name="Path 43569" d="M62.408 249.817H53.76a.419.419 0 1 0 0 .838h8.648a.419.419 0 1 0 0-.838z" transform="translate(-48.9 -232.553)" style="fill:#8994a4;stroke:#8994a4;stroke-width:.5px"/>
        <path data-name="Path 43570" d="M62.408 281.229H53.76a.419.419 0 0 0 0 .838h8.648a.419.419 0 0 0 0-.838z" transform="translate(-48.9 -261.496)" style="fill:#8994a4;stroke:#8994a4;stroke-width:.5px"/>
        <path data-name="Path 43571" d="M230.747 192.469H229a.839.839 0 0 0-.838.838v6.136a.839.839 0 0 0 .838.838h1.749a.839.839 0 0 0 .838-.838v-6.136a.839.839 0 0 0-.84-.838zm0 6.974H229v-6.136h1.749z" transform="translate(-209.981 -179.711)" style="fill:#8994a4;stroke:#8994a4;stroke-width:.5px"/>
        <path data-name="Path 43572" d="M296.6 137.5h-1.749a.839.839 0 0 0-.838.838v10.456a.839.839 0 0 0 .838.838h1.749a.839.839 0 0 0 .838-.838v-10.456a.839.839 0 0 0-.838-.838zm0 11.294h-1.749v-10.456h1.749z" transform="translate(-270.663 -129.061)" style="fill:#8994a4;stroke:#8994a4;stroke-width:.5px"/>
        <path data-name="Path 43573" d="M362.46 192.469h-1.75a.839.839 0 0 0-.838.838v6.136a.839.839 0 0 0 .838.838h1.749a.839.839 0 0 0 .838-.838v-6.136a.839.839 0 0 0-.837-.838zm0 6.974h-1.75v-6.136h1.749z" transform="translate(-331.345 -179.711)" style="fill:#8994a4;stroke:#8994a4;stroke-width:.5px"/>
        <path data-name="Path 43574" d="M428.316 159.854h-1.749a.839.839 0 0 0-.838.838v8.7a.839.839 0 0 0 .838.838h1.749a.839.839 0 0 0 .838-.838v-8.7a.839.839 0 0 0-.838-.838zm0 9.537h-1.749v-8.7h1.749z" transform="translate(-392.027 -149.659)" style="fill:#8994a4;stroke:#8994a4;stroke-width:.5px"/>
        <path data-name="Path 43575" d="m245.334 81.674 4.852-4.686 4.886 5.814a.419.419 0 0 0 .563.072l5.175-3.658a.419.419 0 0 0-.484-.684l-4.86 3.436-4.928-5.868a.42.42 0 0 0-.612-.032l-5.175 5a.419.419 0 0 0 .582.6z" transform="translate(-225.152 -72.352)" style="fill:#8994a4;stroke:#8994a4;stroke-width:.5px"/>
    </g>
</svg>
