<svg width="21" height="16" viewBox="0 0 21 16" fill="none" xmlns="http://www.w3.org/2000/svg">
<path d="M0.350098 15.1968V12.6513C0.350098 12.1362 0.482673 11.6627 0.747825 11.2309C1.01298 10.799 1.36525 10.4695 1.80464 10.2422C2.74404 9.77252 3.69858 9.42024 4.66828 9.1854C5.63798 8.95055 6.62283 8.83312 7.62283 8.83312C8.62283 8.83312 9.60767 8.95055 10.5774 9.1854C11.5471 9.42024 12.5016 9.77252 13.441 10.2422C13.8804 10.4695 14.2327 10.799 14.4978 11.2309C14.763 11.6627 14.8956 12.1362 14.8956 12.6513V15.1968H0.350098ZM16.7137 15.1968V12.4695C16.7137 11.8028 16.5281 11.1627 16.1569 10.549C15.7857 9.9354 15.2592 9.40888 14.5774 8.96949C15.3501 9.0604 16.0774 9.2157 16.7592 9.4354C17.441 9.65509 18.0774 9.92403 18.6683 10.2422C19.2137 10.5452 19.6304 10.8824 19.9183 11.2536C20.2062 11.6248 20.3501 12.0301 20.3501 12.4695V15.1968H16.7137ZM7.62283 7.92403C6.62283 7.92403 5.76676 7.56797 5.05464 6.85585C4.34252 6.14373 3.98646 5.28767 3.98646 4.28767C3.98646 3.28767 4.34252 2.43161 5.05464 1.71949C5.76676 1.00737 6.62283 0.651306 7.62283 0.651306C8.62283 0.651306 9.47889 1.00737 10.191 1.71949C10.9031 2.43161 11.2592 3.28767 11.2592 4.28767C11.2592 5.28767 10.9031 6.14373 10.191 6.85585C9.47889 7.56797 8.62283 7.92403 7.62283 7.92403ZM16.7137 4.28767C16.7137 5.28767 16.3577 6.14373 15.6456 6.85585C14.9334 7.56797 14.0774 7.92403 13.0774 7.92403C12.9107 7.92403 12.6986 7.90509 12.441 7.86721C12.1834 7.82934 11.9713 7.78767 11.8046 7.74222C12.2137 7.25737 12.5281 6.71949 12.7478 6.12858C12.9675 5.53767 13.0774 4.92403 13.0774 4.28767C13.0774 3.65131 12.9675 3.03767 12.7478 2.44676C12.5281 1.85585 12.2137 1.31797 11.8046 0.833124C12.0168 0.757367 12.2289 0.708124 12.441 0.685397C12.6531 0.66267 12.8652 0.651306 13.0774 0.651306C14.0774 0.651306 14.9334 1.00737 15.6456 1.71949C16.3577 2.43161 16.7137 3.28767 16.7137 4.28767Z" fill="white"/>
</svg>
