<svg xmlns="http://www.w3.org/2000/svg" width="15.999" height="16" viewBox="0 0 15.999 16">
    <path data-name="Exclusion 1" d="M14 16H2a2 2 0 0 1-2-2V2a2 2 0 0 1 2-2h12a2 2 0 0 1 2 2v12a2 2 0 0 1-2 2zM3.4 10.607a.363.363 0 0 0-.4.306v1.078a.363.363 0 0 0 .4.306h4.73a.363.363 0 0 0 .4-.306v-1.078a.363.363 0 0 0-.4-.306zM3.5 3a.461.461 0 0 0-.5.409v5.1a.461.461 0 0 0 .5.408h9.339a.461.461 0 0 0 .5-.408v-5.1a.461.461 0 0 0-.5-.409zm3.737 4.037a.313.313 0 0 1-.319-.307V5.186a.313.313 0 0 1 .319-.307.324.324 0 0 1 .141.032l1.607.773a.3.3 0 0 1 0 .547L7.378 7a.324.324 0 0 1-.141.037z" style="fill:#2863eb"/>
</svg>
