<svg xmlns="http://www.w3.org/2000/svg" width="5.994" height="6.289" viewBox="0 0 5.994 6.289">
    <g data-name="Icon feather-arrow-up-right">
        <path data-name="Path 43264" d="M9.869 16.289a.5.5 0 0 1-.363-.843l4.994-5.289a.5.5 0 0 1 .727.687l-4.994 5.289a.5.5 0 0 1-.364.156z" style="fill:#0067fd" transform="translate(-9.369 -10)"/>
        <path data-name="Path 43265" d="M14.864 15.364a.5.5 0 0 1-.5-.5V11H10.5a.5.5 0 0 1 0-1h4.364a.5.5 0 0 1 .5.5v4.364a.5.5 0 0 1-.5.5z" style="fill:#0067fd" transform="translate(-9.369 -10)"/>
    </g>
</svg>
