<svg xmlns="http://www.w3.org/2000/svg" width="18" height="14" viewBox="0 0 18 14">
    <path data-name="Path 43253" d="m201.133 168.775-4.31-2.694a.539.539 0 0 0-.824.457v5.387a.539.539 0 0 0 .824.457l4.31-2.694a.539.539 0 0 0 0-.914zm-4.056 2.178v-3.443l2.755 1.722z" transform="translate(-189.17 -162.232)" style="fill:#fff"/>
    <path data-name="Path 43254" d="M15.363 61H2.637A2.668 2.668 0 0 0 0 63.692v8.615A2.668 2.668 0 0 0 2.637 75h12.726A2.668 2.668 0 0 0 18 72.308v-8.616A2.668 2.668 0 0 0 15.363 61zm1.582 11.308a1.6 1.6 0 0 1-1.582 1.615H2.637a1.6 1.6 0 0 1-1.582-1.615v-8.616a1.6 1.6 0 0 1 1.582-1.615h12.726a1.6 1.6 0 0 1 1.582 1.615z" style="fill:#fff" transform="translate(0 -61)"/>
</svg>
